<svg id="图层_1" data-name="图层 1" xmlns="http://www.w3.org/2000/svg" viewBox="0 0 149.39 167.16"><defs><style>.cls-1{fill:#5e5c5c;}.cls-2{fill:none;stroke:#656464;stroke-width:1.95px;}.cls-3{fill:#fff;}.cls-4{fill:#231815;}</style></defs><title>一维猜方格-游戏界面</title><rect class="cls-1" x="0.97" y="0.97" width="147.44" height="165.21"/><rect class="cls-2" x="0.97" y="0.98" width="147.44" height="165.21"/><rect class="cls-3" x="1.65" y="1.82" width="145.63" height="7.41"/><path class="cls-4" d="M5.67,7.88V3.58H8.42v.51H6.21V5.42H8.12v.51H6.21v2Z"/><path class="cls-4" d="M9.06,4.19V3.58h.5v.61Zm0,3.69V4.77h.5V7.88Z"/><path class="cls-4" d="M10.31,7.88V3.58h.5V7.88Z"/><path class="cls-4" d="M13.61,6.88l.52.07a1.33,1.33,0,0,1-.45.74,1.47,1.47,0,0,1-1.87-.16,1.7,1.7,0,0,1-.38-1.18,1.78,1.78,0,0,1,.38-1.22,1.27,1.27,0,0,1,1-.43,1.23,1.23,0,0,1,1,.42,1.75,1.75,0,0,1,.38,1.2s0,.08,0,.14h-2.2a1.24,1.24,0,0,0,.27.79.8.8,0,0,0,.62.27.74.74,0,0,0,.47-.15A1,1,0,0,0,13.61,6.88ZM12,6h1.65a1.09,1.09,0,0,0-.19-.59.75.75,0,0,0-.62-.3.77.77,0,0,0-.58.24A1,1,0,0,0,12,6Z"/><path class="cls-4" d="M18,7.88V3.58h2.95v.51H18.53V5.41h2.25v.5H18.53V7.37H21v.51Z"/><path class="cls-4" d="M23.63,7.88V7.49a.91.91,0,0,1-.83.46,1.12,1.12,0,0,1-.65-.21,1.33,1.33,0,0,1-.46-.57,2.07,2.07,0,0,1-.16-.85,2.32,2.32,0,0,1,.15-.85,1.22,1.22,0,0,1,.44-.58,1.14,1.14,0,0,1,.66-.2.94.94,0,0,1,.48.12,1,1,0,0,1,.34.31V3.58h.5V7.88ZM22,6.33a1.4,1.4,0,0,0,.24.89.71.71,0,0,0,.56.3.69.69,0,0,0,.56-.28,1.35,1.35,0,0,0,.23-.86,1.52,1.52,0,0,0-.23-.94.7.7,0,0,0-.58-.3.68.68,0,0,0-.56.29A1.47,1.47,0,0,0,22,6.33Z"/><path class="cls-4" d="M24.88,4.19V3.58h.5v.61Zm0,3.69V4.77h.5V7.88Z"/><path class="cls-4" d="M27.23,7.41l.07.47a1.78,1.78,0,0,1-.38,0,.82.82,0,0,1-.42-.09.49.49,0,0,1-.21-.24A2,2,0,0,1,26.23,7V5.18h-.37V4.77h.37V4l.5-.32V4.77h.5v.41h-.5V7a.92.92,0,0,0,0,.29.21.21,0,0,0,.09.1.32.32,0,0,0,.17,0Z"/><path class="cls-4" d="M33.24,7.88,32.16,3.58h.55l.62,2.82q.1.44.17.88l.18-.79.78-2.9h.65l.58,2.17A12,12,0,0,1,36,7.28c.05-.27.12-.58.2-.93l.64-2.76h.54L36.28,7.88h-.52L34.9,4.61q-.11-.41-.13-.5c0,.2-.08.37-.12.5l-.86,3.27Z"/><path class="cls-4" d="M37.84,4.19V3.58h.5v.61Zm0,3.69V4.77h.5V7.88Z"/><path class="cls-4" d="M39.1,7.88V4.77h.45v.44a1,1,0,0,1,.94-.51,1.16,1.16,0,0,1,.49.1.77.77,0,0,1,.33.26,1.06,1.06,0,0,1,.16.39,3.19,3.19,0,0,1,0,.51V7.88H41V6a1.49,1.49,0,0,0-.06-.48.5.5,0,0,0-.21-.25.63.63,0,0,0-.35-.1.79.79,0,0,0-.55.21,1.09,1.09,0,0,0-.23.81v1.7Z"/><path class="cls-4" d="M44.18,7.88V7.49a.91.91,0,0,1-.83.46,1.12,1.12,0,0,1-.65-.21,1.33,1.33,0,0,1-.46-.57,2.07,2.07,0,0,1-.16-.85,2.32,2.32,0,0,1,.15-.85,1.22,1.22,0,0,1,.44-.58,1.14,1.14,0,0,1,.66-.2.94.94,0,0,1,.48.12,1,1,0,0,1,.34.31V3.58h.5V7.88ZM42.6,6.33a1.4,1.4,0,0,0,.24.89.71.71,0,0,0,.56.3A.69.69,0,0,0,44,7.23a1.35,1.35,0,0,0,.23-.86A1.52,1.52,0,0,0,44,5.43a.7.7,0,0,0-.58-.3.68.68,0,0,0-.56.29A1.47,1.47,0,0,0,42.6,6.33Z"/><path class="cls-4" d="M45.25,6.32A1.65,1.65,0,0,1,45.7,5a1.33,1.33,0,0,1,.93-.35,1.29,1.29,0,0,1,1,.42A1.65,1.65,0,0,1,48,6.28a2.15,2.15,0,0,1-.17.95,1.25,1.25,0,0,1-.5.53,1.39,1.39,0,0,1-.71.19,1.29,1.29,0,0,1-1-.42A1.73,1.73,0,0,1,45.25,6.32Zm.51,0a1.38,1.38,0,0,0,.25.9.8.8,0,0,0,1.24,0,1.41,1.41,0,0,0,.25-.91,1.33,1.33,0,0,0-.25-.87.8.8,0,0,0-1.24,0A1.37,1.37,0,0,0,45.76,6.32Z"/><path class="cls-4" d="M49.14,7.88l-.9-3.11h.52l.47,1.8.18.67.15-.64L50,4.77h.51L51,6.57l.15.59.17-.6.51-1.8h.49l-.92,3.11h-.52L50.38,6l-.11-.53-.6,2.39Z"/><path class="cls-4" d="M56,7.88V3.58h.54V5.35h2.12V3.58h.54V7.88h-.54v-2H56.49v2Z"/><path class="cls-4" d="M62,6.88l.52.07a1.33,1.33,0,0,1-.45.74,1.47,1.47,0,0,1-1.87-.16,1.7,1.7,0,0,1-.38-1.18,1.78,1.78,0,0,1,.38-1.22,1.27,1.27,0,0,1,1-.43,1.23,1.23,0,0,1,1,.42,1.75,1.75,0,0,1,.38,1.2s0,.08,0,.14h-2.2a1.24,1.24,0,0,0,.27.79.8.8,0,0,0,.62.27.74.74,0,0,0,.47-.15A1,1,0,0,0,62,6.88ZM60.36,6H62a1.09,1.09,0,0,0-.19-.59.75.75,0,0,0-.62-.3.77.77,0,0,0-.58.24A1,1,0,0,0,60.36,6Z"/><path class="cls-4" d="M63.13,7.88V3.58h.5V7.88Z"/><path class="cls-4" d="M64.41,9.07V4.77h.46v.4a1.13,1.13,0,0,1,.36-.36,1,1,0,0,1,.49-.12,1.12,1.12,0,0,1,.67.21,1.25,1.25,0,0,1,.44.58A2.21,2.21,0,0,1,67,6.3a2.18,2.18,0,0,1-.16.86,1.28,1.28,0,0,1-.47.59,1.18,1.18,0,0,1-.65.2.9.9,0,0,1-.45-.11,1,1,0,0,1-.33-.28V9.07Zm.45-2.73a1.41,1.41,0,0,0,.23.89.7.7,0,0,0,.56.29.71.71,0,0,0,.57-.3,1.47,1.47,0,0,0,.24-.92,1.43,1.43,0,0,0-.23-.89.69.69,0,0,0-.55-.3.71.71,0,0,0-.57.32A1.46,1.46,0,0,0,64.86,6.34Z"/><path class="cls-4" d="M70.8,7.88V3.58h1.4a3.22,3.22,0,0,1,.72.06,1.35,1.35,0,0,1,.6.31,1.75,1.75,0,0,1,.48.73,3,3,0,0,1,.16,1,3.15,3.15,0,0,1-.11.87,2.15,2.15,0,0,1-.28.63,1.49,1.49,0,0,1-.37.39,1.44,1.44,0,0,1-.49.22,2.64,2.64,0,0,1-.65.07Zm.54-.51h.87a2,2,0,0,0,.63-.08.9.9,0,0,0,.37-.22,1.37,1.37,0,0,0,.3-.54,2.79,2.79,0,0,0,.11-.83,2.09,2.09,0,0,0-.21-1,1.08,1.08,0,0,0-.51-.49,2,2,0,0,0-.7-.09h-.86Z"/><path class="cls-4" d="M76.87,6.88l.52.07a1.33,1.33,0,0,1-.45.74,1.47,1.47,0,0,1-1.87-.16,1.7,1.7,0,0,1-.38-1.18,1.78,1.78,0,0,1,.38-1.22,1.27,1.27,0,0,1,1-.43,1.23,1.23,0,0,1,1,.42,1.75,1.75,0,0,1,.38,1.2s0,.08,0,.14H75.2a1.24,1.24,0,0,0,.27.79.8.8,0,0,0,.62.27.74.74,0,0,0,.47-.15A1,1,0,0,0,76.87,6.88ZM75.23,6h1.65a1.09,1.09,0,0,0-.19-.59.75.75,0,0,0-.62-.3.77.77,0,0,0-.58.24A1,1,0,0,0,75.23,6Z"/><path class="cls-4" d="M77.81,7l.5-.08a.74.74,0,0,0,.23.48.78.78,0,0,0,.53.17.75.75,0,0,0,.51-.15A.45.45,0,0,0,79.75,7a.33.33,0,0,0-.15-.28,2.1,2.1,0,0,0-.51-.18,4.41,4.41,0,0,1-.76-.25A.75.75,0,0,1,78,6a.82.82,0,0,1-.11-.42A.83.83,0,0,1,78,5.21a.85.85,0,0,1,.25-.29,1,1,0,0,1,.32-.15A1.47,1.47,0,0,1,79,4.7a1.63,1.63,0,0,1,.61.11.84.84,0,0,1,.39.29,1.16,1.16,0,0,1,.17.48l-.49.07a.57.57,0,0,0-.19-.37A.68.68,0,0,0,79,5.13a.78.78,0,0,0-.49.12.35.35,0,0,0-.15.28.31.31,0,0,0,.06.18.45.45,0,0,0,.19.14l.44.13a6.15,6.15,0,0,1,.74.24.77.77,0,0,1,.33.28.81.81,0,0,1,.12.45.92.92,0,0,1-.15.5,1,1,0,0,1-.42.36,1.48,1.48,0,0,1-.62.13,1.34,1.34,0,0,1-.88-.25A1.19,1.19,0,0,1,77.81,7Z"/><path class="cls-4" d="M82,7.41l.07.47a1.78,1.78,0,0,1-.38,0,.82.82,0,0,1-.42-.09A.49.49,0,0,1,81,7.59,2,2,0,0,1,81,7V5.18h-.37V4.77H81V4l.5-.32V4.77H82v.41h-.5V7a.92.92,0,0,0,0,.29.21.21,0,0,0,.09.1.32.32,0,0,0,.17,0Z"/><path class="cls-4" d="M82.43,7.88V4.77h.45v.47a1.29,1.29,0,0,1,.32-.44.54.54,0,0,1,.32-.11.94.94,0,0,1,.51.17l-.17.49a.69.69,0,0,0-.37-.11.46.46,0,0,0-.29.1.57.57,0,0,0-.19.29,2.15,2.15,0,0,0-.08.62V7.88Z"/><path class="cls-4" d="M84.15,6.32A1.65,1.65,0,0,1,84.6,5a1.33,1.33,0,0,1,.93-.35,1.29,1.29,0,0,1,1,.42,1.65,1.65,0,0,1,.39,1.16,2.15,2.15,0,0,1-.17.95,1.25,1.25,0,0,1-.5.53,1.39,1.39,0,0,1-.71.19,1.29,1.29,0,0,1-1-.42A1.73,1.73,0,0,1,84.15,6.32Zm.51,0a1.38,1.38,0,0,0,.25.9.8.8,0,0,0,1.24,0,1.41,1.41,0,0,0,.25-.91,1.33,1.33,0,0,0-.25-.87.8.8,0,0,0-1.24,0A1.37,1.37,0,0,0,84.66,6.32Z"/><path class="cls-4" d="M87.48,9.08l-.06-.5a1.06,1.06,0,0,0,.29,0A.53.53,0,0,0,88,8.57a.47.47,0,0,0,.16-.16A2.71,2.71,0,0,0,88.29,8l0-.13L87.22,4.77h.54l.61,1.8c.08.23.15.47.21.72a7.32,7.32,0,0,1,.21-.71l.63-1.81h.5L88.8,7.93a6.42,6.42,0,0,1-.28.71,1,1,0,0,1-.31.38.7.7,0,0,1-.41.12A1,1,0,0,1,87.48,9.08Z"/><path class="cls-3" d="M7.34,18.85,3.91,20l-.19,0A.25.25,0,0,1,3.53,20a.34.34,0,0,1-.08-.23.29.29,0,0,1,.06-.19.46.46,0,0,1,.21-.12l3.43-1.2.19,0a.24.24,0,0,1,.19.1.34.34,0,0,1,.08.23.3.3,0,0,1-.06.19A.45.45,0,0,1,7.34,18.85Zm-1.1-1.49a1.42,1.42,0,0,1-.38,1,1.25,1.25,0,0,1-1.86,0,1.49,1.49,0,0,1,0-2,1.25,1.25,0,0,1,1.86,0A1.42,1.42,0,0,1,6.24,17.36Zm-.57,0a.79.79,0,0,0-.22-.56.71.71,0,0,0-1,0,.84.84,0,0,0,0,1.13.7.7,0,0,0,1,0A.8.8,0,0,0,5.67,17.36ZM7.42,21A1.41,1.41,0,0,1,7,22a1.25,1.25,0,0,1-1.86,0,1.49,1.49,0,0,1,0-2,1.25,1.25,0,0,1,1.86,0A1.41,1.41,0,0,1,7.42,21Zm-.58,0a.79.79,0,0,0-.22-.56.7.7,0,0,0-1,0,.83.83,0,0,0,0,1.12.71.71,0,0,0,1,0A.79.79,0,0,0,6.84,21Z"/><path class="cls-3" d="M12.35,18.78h-1.9a.67.67,0,0,1-.48-.14.53.53,0,0,1,0-.72.68.68,0,0,1,.48-.14h2.83v4.64a2,2,0,0,1-.21.92,1.86,1.86,0,0,1-.63.68,1.7,1.7,0,0,1-1,.28H10.43a.68.68,0,0,1-.48-.14.53.53,0,0,1,0-.72.67.67,0,0,1,.48-.14h1a.87.87,0,0,0,.66-.25.88.88,0,0,0,.24-.63Zm.38-2.9v1.06H11.62V15.88Z"/><path class="cls-3" d="M18.12,22.22V22a2.9,2.9,0,0,1-.77.3,3.38,3.38,0,0,1-.77.1A1.73,1.73,0,0,1,15.36,22,1.26,1.26,0,0,1,14.9,21a1.57,1.57,0,0,1,.6-1.17,2.37,2.37,0,0,1,1.65-.54,5.67,5.67,0,0,1,1,.1v-.24a.45.45,0,0,0-.18-.37,1.17,1.17,0,0,0-.68-.14,4.37,4.37,0,0,0-1.07.18,1.65,1.65,0,0,1-.38.06.41.41,0,0,1-.32-.14.53.53,0,0,1-.13-.37.49.49,0,0,1,0-.22.39.39,0,0,1,.13-.15,1.43,1.43,0,0,1,.34-.13,5.83,5.83,0,0,1,.7-.16,3.88,3.88,0,0,1,.65-.06,2,2,0,0,1,1.35.4,1.36,1.36,0,0,1,.48,1.1v2.06h.16a.67.67,0,0,1,.48.14.53.53,0,0,1,0,.72.68.68,0,0,1-.48.14Zm0-1.79a5,5,0,0,0-1-.12,1.61,1.61,0,0,0-1,.3.51.51,0,0,0-.25.39.27.27,0,0,0,.12.23,1.06,1.06,0,0,0,.62.16,2.42,2.42,0,0,0,.76-.14,2.7,2.7,0,0,0,.76-.39Z"/><path class="cls-3" d="M22.78,21l1-2.22a1,1,0,0,1-.48-.07.49.49,0,0,1-.23-.43.48.48,0,0,1,.14-.36.68.68,0,0,1,.48-.14H25a.68.68,0,0,1,.48.14.49.49,0,0,1,.14.36.48.48,0,0,1-.14.36.67.67,0,0,1-.48.14h-.15l-1.56,3.43h-1l-1.56-3.43H20.6a.67.67,0,0,1-.48-.14.53.53,0,0,1,0-.72.68.68,0,0,1,.48-.14h1.25a.67.67,0,0,1,.47.14.49.49,0,0,1,.14.36.48.48,0,0,1-.22.42,1,1,0,0,1-.49.07Z"/><path class="cls-3" d="M29.1,22.22V22a2.9,2.9,0,0,1-.77.3,3.38,3.38,0,0,1-.77.1A1.73,1.73,0,0,1,26.34,22a1.26,1.26,0,0,1-.47-.94,1.57,1.57,0,0,1,.6-1.17,2.37,2.37,0,0,1,1.65-.54,5.67,5.67,0,0,1,1,.1v-.24a.45.45,0,0,0-.18-.37,1.17,1.17,0,0,0-.68-.14,4.37,4.37,0,0,0-1.07.18,1.65,1.65,0,0,1-.38.06.41.41,0,0,1-.32-.14.53.53,0,0,1-.13-.37.49.49,0,0,1,0-.22.39.39,0,0,1,.13-.15,1.43,1.43,0,0,1,.34-.13,5.83,5.83,0,0,1,.7-.16,3.88,3.88,0,0,1,.65-.06,2,2,0,0,1,1.35.4,1.36,1.36,0,0,1,.48,1.1v2.06h.16a.67.67,0,0,1,.48.14.53.53,0,0,1,0,.72.68.68,0,0,1-.48.14Zm0-1.79a5,5,0,0,0-1-.12,1.61,1.61,0,0,0-1,.3.51.51,0,0,0-.25.39.27.27,0,0,0,.12.23,1.06,1.06,0,0,0,.62.16,2.42,2.42,0,0,0,.76-.14,2.7,2.7,0,0,0,.76-.39Z"/><path class="cls-3" d="M37.87,22a.83.83,0,0,1-.2.2.35.35,0,0,1-.18,0,.42.42,0,0,1-.34-.15.79.79,0,0,1-.13-.51v-.67a.81.81,0,0,1,.13-.52.43.43,0,0,1,.34-.15.41.41,0,0,1,.27.09.6.6,0,0,1,.17.31.86.86,0,0,0,.12.29,1.44,1.44,0,0,0,.47.31,1.72,1.72,0,0,0,.74.16,1.61,1.61,0,0,0,1-.31.56.56,0,0,0,.13-.82A.88.88,0,0,0,40,20a5.92,5.92,0,0,0-.81-.2,4.15,4.15,0,0,1-1.15-.37,1.58,1.58,0,0,1-.62-.61,1.65,1.65,0,0,1-.23-.84,1.7,1.7,0,0,1,.56-1.26,2,2,0,0,1,1.45-.54,2.48,2.48,0,0,1,.67.08,1.81,1.81,0,0,1,.56.26.51.51,0,0,1,.36-.19.42.42,0,0,1,.33.15.8.8,0,0,1,.13.51v.75a.8.8,0,0,1-.13.51.42.42,0,0,1-.33.15.44.44,0,0,1-.3-.11.58.58,0,0,1-.15-.33,1,1,0,0,0-.13-.36,1,1,0,0,0-.39-.31,1.38,1.38,0,0,0-.61-.13,1.18,1.18,0,0,0-.8.25.7.7,0,0,0-.29.52.62.62,0,0,0,.12.36.78.78,0,0,0,.35.27,6.33,6.33,0,0,0,.87.22,5.24,5.24,0,0,1,1.1.33,1.55,1.55,0,0,1,.64.57,1.63,1.63,0,0,1,.25.92A1.53,1.53,0,0,1,41,21.78a2.35,2.35,0,0,1-1.64.59,2.85,2.85,0,0,1-.75-.1A3,3,0,0,1,37.87,22Z"/><path class="cls-3" d="M45.18,17.78v3.43H46.3a.67.67,0,0,1,.48.14.53.53,0,0,1,0,.72.68.68,0,0,1-.48.14H43.13a.68.68,0,0,1-.48-.14.49.49,0,0,1-.14-.36.48.48,0,0,1,.14-.36.67.67,0,0,1,.48-.14h1.12V18.78H43.5a.67.67,0,0,1-.48-.14.48.48,0,0,1-.15-.36.48.48,0,0,1,.14-.36.68.68,0,0,1,.48-.14Zm-.13-1.9v1.06H43.95V15.88Z"/><path class="cls-3" d="M48.77,17.78v.28a1.57,1.57,0,0,1,.41-.33,1,1,0,0,1,.42-.09.85.85,0,0,1,.4.11,1.44,1.44,0,0,1,.39.32,1.79,1.79,0,0,1,.49-.32,1.3,1.3,0,0,1,.51-.1,1.19,1.19,0,0,1,.84.3,1.32,1.32,0,0,1,.43,1v2.24a.58.58,0,0,1,.43.14.49.49,0,0,1,.14.36.49.49,0,0,1-.14.36.67.67,0,0,1-.48.14h-.89V19.06a.49.49,0,0,0-.08-.32.3.3,0,0,0-.24-.09.5.5,0,0,0-.29.09,2.06,2.06,0,0,0-.41.46v2a.58.58,0,0,1,.43.14.49.49,0,0,1,.14.36.49.49,0,0,1-.14.36.67.67,0,0,1-.48.14h-.89V19.06a.48.48,0,0,0-.08-.32.3.3,0,0,0-.24-.09.57.57,0,0,0-.32.11,1.77,1.77,0,0,0-.38.44v2a.59.59,0,0,1,.43.14.49.49,0,0,1,.14.36.48.48,0,0,1-.14.36.68.68,0,0,1-.48.14h-.84a.68.68,0,0,1-.48-.14.49.49,0,0,1-.14-.36.48.48,0,0,1,.14-.36.59.59,0,0,1,.44-.14V18.78a.59.59,0,0,1-.44-.14.49.49,0,0,1-.14-.36.48.48,0,0,1,.14-.36.68.68,0,0,1,.48-.14Z"/><path class="cls-3" d="M54.54,21.67v1.64h.56a.67.67,0,0,1,.48.14.53.53,0,0,1,0,.72.68.68,0,0,1-.48.14H53.45a.68.68,0,0,1-.48-.14.53.53,0,0,1,0-.72.67.67,0,0,1,.48-.14h.16V18.78h-.16a.67.67,0,0,1-.48-.14.53.53,0,0,1,0-.72.68.68,0,0,1,.48-.14h1.09v.34a2.48,2.48,0,0,1,.68-.36,2.24,2.24,0,0,1,.72-.12,2.17,2.17,0,0,1,1.63.7,2.23,2.23,0,0,1,.67,1.59,2,2,0,0,1-.79,1.64,2.33,2.33,0,0,1-2.2.42A2.93,2.93,0,0,1,54.54,21.67Zm2.76-1.72a1.32,1.32,0,0,0-.15-.53,1.35,1.35,0,0,0-.47-.54,1.38,1.38,0,0,0-1.85.34,1.28,1.28,0,0,0-.28.74,1.09,1.09,0,0,0,.4.78,1.47,1.47,0,0,0,2,0A1.1,1.1,0,0,0,57.3,19.95Z"/><path class="cls-3" d="M61.65,15.88v5.33h1.12a.67.67,0,0,1,.48.14.53.53,0,0,1,0,.72.68.68,0,0,1-.48.14H59.6a.68.68,0,0,1-.48-.14.49.49,0,0,1-.14-.36.48.48,0,0,1,.14-.36.67.67,0,0,1,.48-.14h1.12V16.88H60a.68.68,0,0,1-.48-.14.48.48,0,0,1-.15-.36.48.48,0,0,1,.14-.36.67.67,0,0,1,.48-.14Z"/><path class="cls-3" d="M69,20.51H65.19a1.26,1.26,0,0,0,.52.63,1.83,1.83,0,0,0,1,.24,5.43,5.43,0,0,0,1.38-.24,2.21,2.21,0,0,1,.49-.1.4.4,0,0,1,.31.14.51.51,0,0,1,.13.36.45.45,0,0,1-.14.33,2.09,2.09,0,0,1-.89.34,6,6,0,0,1-1.35.16,2.4,2.4,0,0,1-1.79-.68A2.28,2.28,0,0,1,64.18,20a2.22,2.22,0,0,1,.72-1.72,2.4,2.4,0,0,1,1.67-.66,2.49,2.49,0,0,1,1,.21,2.22,2.22,0,0,1,.71.46,3,3,0,0,1,.54.89,2.35,2.35,0,0,1,.15.86Zm-1-1a1.58,1.58,0,0,0-2.2-.64,1.55,1.55,0,0,0-.56.64Z"/><path class="cls-3" d="M70.08,21.22V17.3a.62.62,0,0,1-.44-.14.53.53,0,0,1,0-.72.67.67,0,0,1,.48-.14h1.95a2.29,2.29,0,0,1,.89.18,2,2,0,0,1,.7.46,3.14,3.14,0,0,1,.42.58,3.32,3.32,0,0,1,.32.73,3.07,3.07,0,0,1,.11.88v.48a3,3,0,0,1-.2,1.13,2.28,2.28,0,0,1-.52.8,2.7,2.7,0,0,1-.61.46,2.61,2.61,0,0,1-1.18.23H70.12a.68.68,0,0,1-.48-.14.53.53,0,0,1,0-.73A.58.58,0,0,1,70.08,21.22Zm.93,0h1a1.63,1.63,0,0,0,.84-.17,1.49,1.49,0,0,0,.55-.57,1.89,1.89,0,0,0,.19-.9V19.1a1.94,1.94,0,0,0-.17-.83,1.76,1.76,0,0,0-.59-.76A1.52,1.52,0,0,0,72,17.3H71Z"/><path class="cls-3" d="M80.06,20.08a2.29,2.29,0,0,1-.3,1.12,2.16,2.16,0,0,1-.89.86,2.54,2.54,0,0,1-1.23.32,2.51,2.51,0,0,1-1.22-.32,2.17,2.17,0,0,1-.89-.86,2.29,2.29,0,0,1-.3-1.13,2.47,2.47,0,0,1,.31-1.18,2.26,2.26,0,0,1,.89-.91,2.39,2.39,0,0,1,1.21-.33,2.42,2.42,0,0,1,1.22.34,2.23,2.23,0,0,1,.89.91A2.51,2.51,0,0,1,80.06,20.08Zm-.93,0a1.4,1.4,0,0,0-.32-.89,1.5,1.5,0,0,0-2.21-.11,1.4,1.4,0,0,0-.42,1,1.2,1.2,0,0,0,.43.88,1.56,1.56,0,0,0,2.1,0A1.21,1.21,0,0,0,79.13,20.09Z"/><path class="cls-3" d="M82.91,18.78v2a.55.55,0,0,0,.12.42,1.08,1.08,0,0,0,.68.16A2.72,2.72,0,0,0,85,21a.83.83,0,0,1,.36-.13.41.41,0,0,1,.32.15.51.51,0,0,1,.13.36.46.46,0,0,1-.14.34,2.1,2.1,0,0,1-.88.42,4.08,4.08,0,0,1-1.11.19,1.85,1.85,0,0,1-1.3-.4A1.29,1.29,0,0,1,82,21v-2.2h-.34a.67.67,0,0,1-.48-.14.53.53,0,0,1,0-.72.68.68,0,0,1,.48-.14H82v-.9a.8.8,0,0,1,.13-.51.42.42,0,0,1,.34-.15.41.41,0,0,1,.33.15.8.8,0,0,1,.13.51v.9h1.72a.68.68,0,0,1,.48.14.49.49,0,0,1,.14.36.48.48,0,0,1-.14.36.67.67,0,0,1-.48.14Z"/><path class="cls-3" d="M90.08,16.55a.64.64,0,0,1,.19-.19.41.41,0,0,1,.22-.06.42.42,0,0,1,.33.15A.79.79,0,0,1,91,17v.85a.81.81,0,0,1-.13.52.42.42,0,0,1-.33.15.41.41,0,0,1-.3-.11.79.79,0,0,1-.17-.42.64.64,0,0,0-.13-.32,1.29,1.29,0,0,0-.52-.35,1.81,1.81,0,0,0-.67-.13,1.55,1.55,0,0,0-.77.2,1.73,1.73,0,0,0-.62.63,2,2,0,0,0-.27,1v.65a1.63,1.63,0,0,0,.49,1.21,1.84,1.84,0,0,0,1.36.48,2.26,2.26,0,0,0,.88-.15,1.34,1.34,0,0,0,.45-.35,1.08,1.08,0,0,1,.23-.2.37.37,0,0,1,.19,0,.44.44,0,0,1,.33.15.51.51,0,0,1,.14.36.72.72,0,0,1-.19.44,1.91,1.91,0,0,1-.71.54,3.12,3.12,0,0,1-1.29.26A3,3,0,0,1,87.41,22a2.44,2.44,0,0,1-.91-.92,2.64,2.64,0,0,1-.38-1.38V19a3.21,3.21,0,0,1,.34-1.46,2.5,2.5,0,0,1,.94-1,2.4,2.4,0,0,1,1.27-.37,2.72,2.72,0,0,1,.76.1A2.26,2.26,0,0,1,90.08,16.55Z"/><path class="cls-3" d="M96.53,20.08a2.29,2.29,0,0,1-.3,1.12,2.16,2.16,0,0,1-.89.86,2.54,2.54,0,0,1-1.23.32,2.51,2.51,0,0,1-1.22-.32,2.17,2.17,0,0,1-.89-.86,2.29,2.29,0,0,1-.3-1.13A2.47,2.47,0,0,1,92,18.89a2.26,2.26,0,0,1,.89-.91,2.39,2.39,0,0,1,1.21-.33,2.42,2.42,0,0,1,1.22.34,2.23,2.23,0,0,1,.89.91A2.51,2.51,0,0,1,96.53,20.08Zm-.93,0a1.4,1.4,0,0,0-.32-.89,1.5,1.5,0,0,0-2.21-.11,1.4,1.4,0,0,0-.42,1,1.2,1.2,0,0,0,.43.88,1.56,1.56,0,0,0,2.1,0A1.21,1.21,0,0,0,95.6,20.09Z"/><path class="cls-3" d="M98.16,17.78v.28a1.57,1.57,0,0,1,.41-.33,1,1,0,0,1,.42-.09.85.85,0,0,1,.4.11,1.44,1.44,0,0,1,.39.32,1.79,1.79,0,0,1,.49-.32,1.3,1.3,0,0,1,.51-.1,1.19,1.19,0,0,1,.84.3,1.32,1.32,0,0,1,.43,1v2.24a.58.58,0,0,1,.43.14.49.49,0,0,1,.14.36.49.49,0,0,1-.14.36.67.67,0,0,1-.48.14h-.89V19.06a.49.49,0,0,0-.08-.32.3.3,0,0,0-.24-.09.5.5,0,0,0-.29.09,2.06,2.06,0,0,0-.41.46v2a.58.58,0,0,1,.43.14.49.49,0,0,1,.14.36.49.49,0,0,1-.14.36.67.67,0,0,1-.48.14h-.89V19.06a.48.48,0,0,0-.08-.32.3.3,0,0,0-.24-.09.57.57,0,0,0-.32.11,1.77,1.77,0,0,0-.38.44v2a.59.59,0,0,1,.43.14.49.49,0,0,1,.14.36.48.48,0,0,1-.14.36.68.68,0,0,1-.48.14h-.84a.68.68,0,0,1-.48-.14.49.49,0,0,1-.14-.36.48.48,0,0,1,.14-.36.59.59,0,0,1,.44-.14V18.78a.59.59,0,0,1-.44-.14.49.49,0,0,1-.14-.36.48.48,0,0,1,.14-.36.68.68,0,0,1,.48-.14Z"/><path class="cls-3" d="M107.43,20.39v1.34a5.27,5.27,0,0,1-1.07.5,3.26,3.26,0,0,1-1,.13,3.71,3.71,0,0,1-1.32-.23,2.1,2.1,0,0,1-.75-.44,2.53,2.53,0,0,1-.51-.79,2.89,2.89,0,0,1-.23-1.17V19a3,3,0,0,1,.57-1.79,2.42,2.42,0,0,1,2.08-1.06,3.05,3.05,0,0,1,.72.08,2.74,2.74,0,0,1,.65.25.54.54,0,0,1,.36-.18.41.41,0,0,1,.33.15.8.8,0,0,1,.13.51v.65a.8.8,0,0,1-.13.51.41.41,0,0,1-.33.15.41.41,0,0,1-.28-.11.61.61,0,0,1-.15-.32.87.87,0,0,0-.14-.34,1,1,0,0,0-.43-.25,2.11,2.11,0,0,0-.7-.11,1.84,1.84,0,0,0-1,.24,1.64,1.64,0,0,0-.54.63,2,2,0,0,0-.25,1v.72a1.62,1.62,0,0,0,.43,1.22,1.94,1.94,0,0,0,1.38.42,2.61,2.61,0,0,0,1.17-.26v-.72h-.95a.67.67,0,0,1-.48-.14.53.53,0,0,1,0-.73.67.67,0,0,1,.48-.14h1.65a.68.68,0,0,1,.48.14.48.48,0,0,1,.14.36.51.51,0,0,1-.1.31A.57.57,0,0,1,107.43,20.39Z"/><path class="cls-3" d="M111.41,22.22V22a2.9,2.9,0,0,1-.77.3,3.38,3.38,0,0,1-.77.1,1.73,1.73,0,0,1-1.22-.43,1.26,1.26,0,0,1-.47-.94,1.57,1.57,0,0,1,.6-1.17,2.37,2.37,0,0,1,1.65-.54,5.67,5.67,0,0,1,1,.1v-.24a.45.45,0,0,0-.18-.37,1.17,1.17,0,0,0-.68-.14,4.37,4.37,0,0,0-1.07.18,1.65,1.65,0,0,1-.38.06.41.41,0,0,1-.32-.14.53.53,0,0,1-.13-.37.49.49,0,0,1,0-.22.39.39,0,0,1,.13-.15,1.43,1.43,0,0,1,.34-.13,5.83,5.83,0,0,1,.7-.16,3.88,3.88,0,0,1,.65-.06,2,2,0,0,1,1.35.4,1.36,1.36,0,0,1,.48,1.1v2.06h.16a.67.67,0,0,1,.48.14.53.53,0,0,1,0,.72.68.68,0,0,1-.48.14Zm0-1.79a5,5,0,0,0-1-.12,1.61,1.61,0,0,0-1,.3.51.51,0,0,0-.25.39.27.27,0,0,0,.12.23,1.06,1.06,0,0,0,.62.16,2.42,2.42,0,0,0,.76-.14,2.7,2.7,0,0,0,.76-.39Z"/><path class="cls-3" d="M114.62,17.78v.28a1.57,1.57,0,0,1,.41-.33,1,1,0,0,1,.42-.09.85.85,0,0,1,.4.11,1.44,1.44,0,0,1,.39.32,1.79,1.79,0,0,1,.49-.32,1.3,1.3,0,0,1,.51-.1,1.19,1.19,0,0,1,.84.3,1.32,1.32,0,0,1,.43,1v2.24a.58.58,0,0,1,.43.14.49.49,0,0,1,.14.36.49.49,0,0,1-.14.36.67.67,0,0,1-.48.14h-.89V19.06a.49.49,0,0,0-.08-.32.3.3,0,0,0-.24-.09.5.5,0,0,0-.29.09,2.06,2.06,0,0,0-.41.46v2a.58.58,0,0,1,.43.14.49.49,0,0,1,.14.36.49.49,0,0,1-.14.36.67.67,0,0,1-.48.14h-.89V19.06a.48.48,0,0,0-.08-.32.3.3,0,0,0-.24-.09.57.57,0,0,0-.32.11,1.77,1.77,0,0,0-.38.44v2a.59.59,0,0,1,.43.14.49.49,0,0,1,.14.36.48.48,0,0,1-.14.36.68.68,0,0,1-.48.14h-.84a.68.68,0,0,1-.48-.14.49.49,0,0,1-.14-.36.48.48,0,0,1,.14-.36.59.59,0,0,1,.44-.14V18.78a.59.59,0,0,1-.44-.14.49.49,0,0,1-.14-.36.48.48,0,0,1,.14-.36.68.68,0,0,1,.48-.14Z"/><path class="cls-3" d="M123.89,20.51h-3.82a1.26,1.26,0,0,0,.52.63,1.83,1.83,0,0,0,1,.24,5.43,5.43,0,0,0,1.38-.24,2.21,2.21,0,0,1,.49-.1.4.4,0,0,1,.31.14.51.51,0,0,1,.13.36.45.45,0,0,1-.14.33,2.09,2.09,0,0,1-.89.34,6,6,0,0,1-1.35.16,2.4,2.4,0,0,1-1.79-.68,2.28,2.28,0,0,1-.67-1.67,2.22,2.22,0,0,1,.72-1.72,2.4,2.4,0,0,1,1.67-.66,2.49,2.49,0,0,1,1,.21,2.22,2.22,0,0,1,.71.46,3,3,0,0,1,.54.89,2.35,2.35,0,0,1,.15.86Zm-1-1a1.58,1.58,0,0,0-2.2-.64,1.55,1.55,0,0,0-.56.64Z"/><path class="cls-3" d="M7.86,36.85H4a1.26,1.26,0,0,0,.52.63,1.83,1.83,0,0,0,1,.24,5.43,5.43,0,0,0,1.38-.24,2.21,2.21,0,0,1,.49-.1.4.4,0,0,1,.31.14.51.51,0,0,1,.13.36.45.45,0,0,1-.14.33,2.09,2.09,0,0,1-.89.34,6,6,0,0,1-1.35.16A2.4,2.4,0,0,1,3.71,38,2.28,2.28,0,0,1,3,36.37a2.22,2.22,0,0,1,.72-1.72A2.4,2.4,0,0,1,5.43,34a2.49,2.49,0,0,1,1,.21,2.22,2.22,0,0,1,.71.46,3,3,0,0,1,.54.89,2.35,2.35,0,0,1,.15.86Zm-1-1a1.58,1.58,0,0,0-2.2-.64,1.55,1.55,0,0,0-.56.64Z"/><path class="cls-3" d="M10.07,34.12v.34a1.75,1.75,0,0,1,.56-.35A1.85,1.85,0,0,1,11.3,34a1.65,1.65,0,0,1,1.31.55A1.7,1.7,0,0,1,13,35.7v1.86a.59.59,0,0,1,.44.14.53.53,0,0,1,0,.72.68.68,0,0,1-.48.14H12.1a.68.68,0,0,1-.48-.14.49.49,0,0,1-.14-.36.48.48,0,0,1,.14-.36.59.59,0,0,1,.44-.14V35.67a.62.62,0,0,0-.16-.48.92.92,0,0,0-.64-.2,1.14,1.14,0,0,0-.56.13,2.57,2.57,0,0,0-.62.57v1.86a.94.94,0,0,1,.46.07.52.52,0,0,1,.08.79.68.68,0,0,1-.48.14H9.08a.68.68,0,0,1-.48-.14.53.53,0,0,1,.07-.79,1,1,0,0,1,.47-.07V35.12A.59.59,0,0,1,8.7,35a.49.49,0,0,1-.14-.36.48.48,0,0,1,.14-.36.68.68,0,0,1,.48-.14Z"/><path class="cls-3" d="M16.27,35.12v2a.55.55,0,0,0,.12.42,1.08,1.08,0,0,0,.68.16,2.72,2.72,0,0,0,1.32-.33.83.83,0,0,1,.36-.13.41.41,0,0,1,.32.15.51.51,0,0,1,.13.36.46.46,0,0,1-.14.34,2.1,2.1,0,0,1-.88.42,4.08,4.08,0,0,1-1.11.19,1.85,1.85,0,0,1-1.3-.4,1.29,1.29,0,0,1-.43-1v-2.2H15a.67.67,0,0,1-.48-.14.53.53,0,0,1,0-.72.68.68,0,0,1,.48-.14h.34v-.9a.8.8,0,0,1,.13-.51.42.42,0,0,1,.34-.15.41.41,0,0,1,.33.15.8.8,0,0,1,.13.51v.9H18a.68.68,0,0,1,.48.14.49.49,0,0,1,.14.36.48.48,0,0,1-.14.36.67.67,0,0,1-.48.14Z"/><path class="cls-3" d="M24.33,36.85H20.51a1.26,1.26,0,0,0,.52.63,1.83,1.83,0,0,0,1,.24,5.43,5.43,0,0,0,1.38-.24,2.21,2.21,0,0,1,.49-.1.4.4,0,0,1,.31.14.51.51,0,0,1,.13.36.45.45,0,0,1-.14.33,2.09,2.09,0,0,1-.89.34,6,6,0,0,1-1.35.16A2.4,2.4,0,0,1,20.17,38a2.28,2.28,0,0,1-.67-1.67,2.22,2.22,0,0,1,.72-1.72A2.4,2.4,0,0,1,21.89,34a2.49,2.49,0,0,1,1,.21,2.22,2.22,0,0,1,.71.46,3,3,0,0,1,.54.89,2.35,2.35,0,0,1,.15.86Zm-1-1a1.58,1.58,0,0,0-2.2-.64,1.55,1.55,0,0,0-.56.64Z"/><path class="cls-3" d="M27.28,34.12v.63a5,5,0,0,1,.92-.61,1.56,1.56,0,0,1,.63-.15,1.35,1.35,0,0,1,.88.36.67.67,0,0,1,.29.5.51.51,0,0,1-.14.36.44.44,0,0,1-.33.15.54.54,0,0,1-.36-.19.53.53,0,0,0-.34-.19,1.24,1.24,0,0,0-.58.26,9.3,9.3,0,0,0-1,.79v1.51h1.33a.67.67,0,0,1,.48.14.53.53,0,0,1,0,.72.68.68,0,0,1-.48.14H25.8a.68.68,0,0,1-.48-.14.49.49,0,0,1-.14-.36.48.48,0,0,1,.14-.36.67.67,0,0,1,.48-.14h.55V35.12H26a.67.67,0,0,1-.48-.14.53.53,0,0,1,0-.72.68.68,0,0,1,.48-.14Z"/><path class="cls-3" d="M39.29,38.56v-.23a2.9,2.9,0,0,1-.77.3,3.38,3.38,0,0,1-.77.1,1.73,1.73,0,0,1-1.22-.43,1.26,1.26,0,0,1-.47-.94,1.57,1.57,0,0,1,.6-1.17,2.37,2.37,0,0,1,1.65-.54,5.67,5.67,0,0,1,1,.1V35.5a.45.45,0,0,0-.18-.37,1.17,1.17,0,0,0-.68-.14,4.37,4.37,0,0,0-1.07.18,1.65,1.65,0,0,1-.38.06.41.41,0,0,1-.32-.14.53.53,0,0,1-.13-.37.49.49,0,0,1,0-.22.39.39,0,0,1,.13-.15,1.43,1.43,0,0,1,.34-.13,5.83,5.83,0,0,1,.7-.16A3.88,3.88,0,0,1,38.4,34a2,2,0,0,1,1.35.4,1.36,1.36,0,0,1,.48,1.1v2.06h.16a.67.67,0,0,1,.48.14.53.53,0,0,1,0,.72.68.68,0,0,1-.48.14Zm0-1.79a5,5,0,0,0-1-.12,1.61,1.61,0,0,0-1,.3.51.51,0,0,0-.25.39.27.27,0,0,0,.12.23,1.06,1.06,0,0,0,.62.16,2.42,2.42,0,0,0,.76-.14,2.7,2.7,0,0,0,.76-.39Z"/><path class="cls-3" d="M48.48,34.12v.34a1.75,1.75,0,0,1,.56-.35,1.85,1.85,0,0,1,.67-.12,1.65,1.65,0,0,1,1.31.55,1.7,1.7,0,0,1,.38,1.15v1.86a.59.59,0,0,1,.44.14.53.53,0,0,1,0,.72.68.68,0,0,1-.48.14h-.84a.68.68,0,0,1-.48-.14.49.49,0,0,1-.14-.36A.48.48,0,0,1,50,37.7a.59.59,0,0,1,.44-.14V35.67a.62.62,0,0,0-.16-.48.92.92,0,0,0-.64-.2,1.14,1.14,0,0,0-.56.13,2.57,2.57,0,0,0-.62.57v1.86a.94.94,0,0,1,.46.07.52.52,0,0,1,.08.79.68.68,0,0,1-.48.14H47.49a.68.68,0,0,1-.48-.14.53.53,0,0,1,.07-.79,1,1,0,0,1,.47-.07V35.12a.59.59,0,0,1-.44-.14.49.49,0,0,1-.14-.36.48.48,0,0,1,.14-.36.68.68,0,0,1,.48-.14Z"/><path class="cls-3" d="M56.89,34.12v3.43a.59.59,0,0,1,.44.14.49.49,0,0,1,.14.36.48.48,0,0,1-.14.36.68.68,0,0,1-.48.14H56v-.23a4.33,4.33,0,0,1-.76.29,2.65,2.65,0,0,1-.69.1,1.43,1.43,0,0,1-1.33-.78,1.39,1.39,0,0,1-.14-.66V35.12h-.16A.67.67,0,0,1,52.4,35a.53.53,0,0,1,0-.72.68.68,0,0,1,.48-.14H54v3a.65.65,0,0,0,.14.47.58.58,0,0,0,.44.15,1.77,1.77,0,0,0,.61-.12,4.22,4.22,0,0,0,.8-.43v-2h-.34a.67.67,0,0,1-.48-.14.53.53,0,0,1,0-.72.68.68,0,0,1,.48-.14Z"/><path class="cls-3" d="M59,34.12v.28a1.57,1.57,0,0,1,.41-.33A1,1,0,0,1,59.8,34a.85.85,0,0,1,.4.11,1.44,1.44,0,0,1,.39.32,1.79,1.79,0,0,1,.49-.32,1.3,1.3,0,0,1,.51-.1,1.19,1.19,0,0,1,.84.3,1.32,1.32,0,0,1,.43,1v2.24a.58.58,0,0,1,.43.14.49.49,0,0,1,.14.36.49.49,0,0,1-.14.36.67.67,0,0,1-.48.14h-.89V35.4a.49.49,0,0,0-.08-.32.3.3,0,0,0-.24-.09.5.5,0,0,0-.29.09,2.06,2.06,0,0,0-.41.46v2a.58.58,0,0,1,.43.14.49.49,0,0,1,.14.36.49.49,0,0,1-.14.36.67.67,0,0,1-.48.14H60V35.4a.48.48,0,0,0-.08-.32.3.3,0,0,0-.24-.09.57.57,0,0,0-.32.11,1.77,1.77,0,0,0-.38.44v2a.59.59,0,0,1,.43.14.49.49,0,0,1,.14.36.48.48,0,0,1-.14.36.68.68,0,0,1-.48.14h-.84a.68.68,0,0,1-.48-.14.49.49,0,0,1-.14-.36.48.48,0,0,1,.14-.36.59.59,0,0,1,.44-.14V35.12A.59.59,0,0,1,57.6,35a.49.49,0,0,1-.14-.36.48.48,0,0,1,.14-.36.68.68,0,0,1,.48-.14Z"/><path class="cls-3" d="M64.72,32.22v2.25a2.74,2.74,0,0,1,.69-.36,2.19,2.19,0,0,1,.71-.12,2.16,2.16,0,0,1,1.64.72,2.45,2.45,0,0,1,.67,1.73,2.23,2.23,0,0,1-.64,1.62,2.26,2.26,0,0,1-1.69.65,2.5,2.5,0,0,1-.72-.1,2.73,2.73,0,0,1-.67-.3v.24H63.63a.68.68,0,0,1-.48-.14.49.49,0,0,1-.14-.36.47.47,0,0,1,.15-.36.67.67,0,0,1,.48-.14h.16V33.22h-.16a.68.68,0,0,1-.48-.14.49.49,0,0,1-.14-.36.48.48,0,0,1,.14-.36.67.67,0,0,1,.48-.14Zm2.78,4.25a1.48,1.48,0,0,0-.4-1,1.35,1.35,0,0,0-2,0,1.46,1.46,0,0,0-.4,1,1.21,1.21,0,0,0,.36.91,1.67,1.67,0,0,0,2.05,0A1.19,1.19,0,0,0,67.5,36.47Z"/><path class="cls-3" d="M73.72,36.85H69.9a1.26,1.26,0,0,0,.52.63,1.83,1.83,0,0,0,1,.24,5.43,5.43,0,0,0,1.38-.24,2.21,2.21,0,0,1,.49-.1.4.4,0,0,1,.31.14.51.51,0,0,1,.13.36.45.45,0,0,1-.14.33,2.09,2.09,0,0,1-.89.34,6,6,0,0,1-1.35.16A2.4,2.4,0,0,1,69.56,38a2.28,2.28,0,0,1-.67-1.67,2.22,2.22,0,0,1,.72-1.72A2.4,2.4,0,0,1,71.28,34a2.49,2.49,0,0,1,1,.21,2.22,2.22,0,0,1,.71.46,3,3,0,0,1,.54.89,2.35,2.35,0,0,1,.15.86Zm-1-1a1.58,1.58,0,0,0-2.2-.64,1.55,1.55,0,0,0-.56.64Z"/><path class="cls-3" d="M76.67,34.12v.63a5,5,0,0,1,.92-.61,1.56,1.56,0,0,1,.63-.15,1.35,1.35,0,0,1,.88.36.67.67,0,0,1,.29.5.51.51,0,0,1-.14.36.44.44,0,0,1-.33.15.54.54,0,0,1-.36-.19.53.53,0,0,0-.34-.19,1.24,1.24,0,0,0-.58.26,9.3,9.3,0,0,0-1,.79v1.51H78a.67.67,0,0,1,.48.14.53.53,0,0,1,0,.72.68.68,0,0,1-.48.14H75.19a.68.68,0,0,1-.48-.14.49.49,0,0,1-.14-.36.48.48,0,0,1,.14-.36.67.67,0,0,1,.48-.14h.55V35.12h-.34a.67.67,0,0,1-.48-.14.53.53,0,0,1,0-.72.68.68,0,0,1,.48-.14Z"/><path class="cls-3" d="M92.46,37.56h2a.5.5,0,0,1,.32-.15.42.42,0,0,1,.34.15.83.83,0,0,1,.12.52v.48H91V37.5a37.06,37.06,0,0,0,3-2.87,1,1,0,0,0,.26-.62.86.86,0,0,0-.3-.65,1.1,1.1,0,0,0-.79-.28,1.06,1.06,0,0,0-1.11.81.58.58,0,0,1-.17.29.43.43,0,0,1-.27.09.44.44,0,0,1-.33-.15.48.48,0,0,1-.14-.34,1.57,1.57,0,0,1,.25-.73,1.84,1.84,0,0,1,.74-.7,2.16,2.16,0,0,1,1.05-.26,1.94,1.94,0,0,1,1.44.57A1.91,1.91,0,0,1,95.27,34a1.83,1.83,0,0,1-.16.77,4,4,0,0,1-.77,1Q93.85,36.28,92.46,37.56Z"/><path class="cls-3" d="M4.57,46.72v2.13a2.33,2.33,0,0,1,.59-.28,2,2,0,0,1,.6-.09,2,2,0,0,1,.86.18,1.5,1.5,0,0,1,.62.55,1.71,1.71,0,0,1,.25,1v1.88a1,1,0,0,1,.46.07.49.49,0,0,1,.22.43.49.49,0,0,1-.14.36.67.67,0,0,1-.48.14H6.49A.67.67,0,0,1,6,52.92a.53.53,0,0,1,.08-.79.89.89,0,0,1,.46-.07V50.24a.73.73,0,0,0-.16-.54.86.86,0,0,0-.63-.21,1.13,1.13,0,0,0-.55.13,3,3,0,0,0-.64.56v1.88a.93.93,0,0,1,.46.07.49.49,0,0,1,.22.43.48.48,0,0,1-.14.36.68.68,0,0,1-.48.14H3.57a.68.68,0,0,1-.48-.14.53.53,0,0,1,.08-.79.89.89,0,0,1,.46-.07V47.72H3.48A.68.68,0,0,1,3,47.59a.49.49,0,0,1-.14-.36A.48.48,0,0,1,3,46.86a.67.67,0,0,1,.48-.14Z"/><path class="cls-3" d="M11.47,48.62v3.43h1.12a.67.67,0,0,1,.48.14.53.53,0,0,1,0,.72.68.68,0,0,1-.48.14H9.43a.68.68,0,0,1-.48-.14.49.49,0,0,1-.14-.36.48.48,0,0,1,.14-.36.67.67,0,0,1,.48-.14h1.12V49.62H9.79a.67.67,0,0,1-.48-.14.48.48,0,0,1-.15-.36.48.48,0,0,1,.14-.36.68.68,0,0,1,.48-.14Zm-.13-1.9v1.06H10.24V46.72Z"/><path class="cls-3" d="M16.27,49.62v2a.55.55,0,0,0,.12.42,1.08,1.08,0,0,0,.68.16,2.72,2.72,0,0,0,1.32-.33.83.83,0,0,1,.36-.13.41.41,0,0,1,.32.15.51.51,0,0,1,.13.36.46.46,0,0,1-.14.34,2.1,2.1,0,0,1-.88.42,4.08,4.08,0,0,1-1.11.19,1.85,1.85,0,0,1-1.3-.4,1.29,1.29,0,0,1-.43-1v-2.2H15a.67.67,0,0,1-.48-.14.53.53,0,0,1,0-.72.68.68,0,0,1,.48-.14h.34v-.9a.8.8,0,0,1,.13-.51.42.42,0,0,1,.34-.15.41.41,0,0,1,.33.15.8.8,0,0,1,.13.51v.9H18a.68.68,0,0,1,.48.14.49.49,0,0,1,.14.36.48.48,0,0,1-.14.36.67.67,0,0,1-.48.14Z"/><path class="cls-3" d="M7.86,65.85H4a1.26,1.26,0,0,0,.52.63,1.83,1.83,0,0,0,1,.24,5.43,5.43,0,0,0,1.38-.24,2.21,2.21,0,0,1,.49-.1.4.4,0,0,1,.31.14.51.51,0,0,1,.13.36.45.45,0,0,1-.14.33,2.09,2.09,0,0,1-.89.34,6,6,0,0,1-1.35.16A2.4,2.4,0,0,1,3.71,67,2.28,2.28,0,0,1,3,65.37a2.22,2.22,0,0,1,.72-1.72A2.4,2.4,0,0,1,5.43,63a2.49,2.49,0,0,1,1,.21,2.22,2.22,0,0,1,.71.46,3,3,0,0,1,.54.89,2.35,2.35,0,0,1,.15.86Zm-1-1a1.58,1.58,0,0,0-2.2-.64,1.55,1.55,0,0,0-.56.64Z"/><path class="cls-3" d="M10.07,63.12v.34a1.75,1.75,0,0,1,.56-.35A1.85,1.85,0,0,1,11.3,63a1.65,1.65,0,0,1,1.31.55A1.7,1.7,0,0,1,13,64.7v1.86a.59.59,0,0,1,.44.14.53.53,0,0,1,0,.72.68.68,0,0,1-.48.14H12.1a.68.68,0,0,1-.48-.14.49.49,0,0,1-.14-.36.48.48,0,0,1,.14-.36.59.59,0,0,1,.44-.14V64.67a.62.62,0,0,0-.16-.48.92.92,0,0,0-.64-.2,1.14,1.14,0,0,0-.56.13,2.57,2.57,0,0,0-.62.57v1.86a.94.94,0,0,1,.46.07.52.52,0,0,1,.08.79.68.68,0,0,1-.48.14H9.08a.68.68,0,0,1-.48-.14.53.53,0,0,1,.07-.79,1,1,0,0,1,.47-.07V64.12A.59.59,0,0,1,8.7,64a.49.49,0,0,1-.14-.36.48.48,0,0,1,.14-.36.68.68,0,0,1,.48-.14Z"/><path class="cls-3" d="M16.27,64.12v2a.55.55,0,0,0,.12.42,1.08,1.08,0,0,0,.68.16,2.72,2.72,0,0,0,1.32-.33.83.83,0,0,1,.36-.13.41.41,0,0,1,.32.15.51.51,0,0,1,.13.36.46.46,0,0,1-.14.34,2.1,2.1,0,0,1-.88.42,4.08,4.08,0,0,1-1.11.19,1.85,1.85,0,0,1-1.3-.4,1.29,1.29,0,0,1-.43-1v-2.2H15a.67.67,0,0,1-.48-.14.53.53,0,0,1,0-.72.68.68,0,0,1,.48-.14h.34v-.9a.8.8,0,0,1,.13-.51.42.42,0,0,1,.34-.15.41.41,0,0,1,.33.15.8.8,0,0,1,.13.51v.9H18a.68.68,0,0,1,.48.14.49.49,0,0,1,.14.36.48.48,0,0,1-.14.36.67.67,0,0,1-.48.14Z"/><path class="cls-3" d="M24.33,65.85H20.51a1.26,1.26,0,0,0,.52.63,1.83,1.83,0,0,0,1,.24,5.43,5.43,0,0,0,1.38-.24,2.21,2.21,0,0,1,.49-.1.4.4,0,0,1,.31.14.51.51,0,0,1,.13.36.45.45,0,0,1-.14.33,2.09,2.09,0,0,1-.89.34,6,6,0,0,1-1.35.16A2.4,2.4,0,0,1,20.17,67a2.28,2.28,0,0,1-.67-1.67,2.22,2.22,0,0,1,.72-1.72A2.4,2.4,0,0,1,21.89,63a2.49,2.49,0,0,1,1,.21,2.22,2.22,0,0,1,.71.46,3,3,0,0,1,.54.89,2.35,2.35,0,0,1,.15.86Zm-1-1a1.58,1.58,0,0,0-2.2-.64,1.55,1.55,0,0,0-.56.64Z"/><path class="cls-3" d="M27.28,63.12v.63a5,5,0,0,1,.92-.61,1.56,1.56,0,0,1,.63-.15,1.35,1.35,0,0,1,.88.36.67.67,0,0,1,.29.5.51.51,0,0,1-.14.36.44.44,0,0,1-.33.15.54.54,0,0,1-.36-.19.53.53,0,0,0-.34-.19,1.24,1.24,0,0,0-.58.26,9.3,9.3,0,0,0-1,.79v1.51h1.33a.67.67,0,0,1,.48.14.53.53,0,0,1,0,.72.68.68,0,0,1-.48.14H25.8a.68.68,0,0,1-.48-.14.49.49,0,0,1-.14-.36.48.48,0,0,1,.14-.36.67.67,0,0,1,.48-.14h.55V64.12H26a.67.67,0,0,1-.48-.14.53.53,0,0,1,0-.72.68.68,0,0,1,.48-.14Z"/><path class="cls-3" d="M39.29,67.56v-.23a2.9,2.9,0,0,1-.77.3,3.38,3.38,0,0,1-.77.1,1.73,1.73,0,0,1-1.22-.43,1.26,1.26,0,0,1-.47-.94,1.57,1.57,0,0,1,.6-1.17,2.37,2.37,0,0,1,1.65-.54,5.67,5.67,0,0,1,1,.1V64.5a.45.45,0,0,0-.18-.37,1.17,1.17,0,0,0-.68-.14,4.37,4.37,0,0,0-1.07.18,1.65,1.65,0,0,1-.38.06.41.41,0,0,1-.32-.14.53.53,0,0,1-.13-.37.49.49,0,0,1,0-.22.39.39,0,0,1,.13-.15,1.43,1.43,0,0,1,.34-.13,5.83,5.83,0,0,1,.7-.16A3.88,3.88,0,0,1,38.4,63a2,2,0,0,1,1.35.4,1.36,1.36,0,0,1,.48,1.1v2.06h.16a.67.67,0,0,1,.48.14.53.53,0,0,1,0,.72.68.68,0,0,1-.48.14Zm0-1.79a5,5,0,0,0-1-.12,1.61,1.61,0,0,0-1,.3.51.51,0,0,0-.25.39.27.27,0,0,0,.12.23,1.06,1.06,0,0,0,.62.16,2.42,2.42,0,0,0,.76-.14,2.7,2.7,0,0,0,.76-.39Z"/><path class="cls-3" d="M48.48,63.12v.34a1.75,1.75,0,0,1,.56-.35,1.85,1.85,0,0,1,.67-.12,1.65,1.65,0,0,1,1.31.55,1.7,1.7,0,0,1,.38,1.15v1.86a.59.59,0,0,1,.44.14.53.53,0,0,1,0,.72.68.68,0,0,1-.48.14h-.84a.68.68,0,0,1-.48-.14.49.49,0,0,1-.14-.36A.48.48,0,0,1,50,66.7a.59.59,0,0,1,.44-.14V64.67a.62.62,0,0,0-.16-.48.92.92,0,0,0-.64-.2,1.14,1.14,0,0,0-.56.13,2.57,2.57,0,0,0-.62.57v1.86a.94.94,0,0,1,.46.07.52.52,0,0,1,.08.79.68.68,0,0,1-.48.14H47.49a.68.68,0,0,1-.48-.14.53.53,0,0,1,.07-.79,1,1,0,0,1,.47-.07V64.12a.59.59,0,0,1-.44-.14.49.49,0,0,1-.14-.36.48.48,0,0,1,.14-.36.68.68,0,0,1,.48-.14Z"/><path class="cls-3" d="M56.89,63.12v3.43a.59.59,0,0,1,.44.14.49.49,0,0,1,.14.36.48.48,0,0,1-.14.36.68.68,0,0,1-.48.14H56v-.23a4.33,4.33,0,0,1-.76.29,2.65,2.65,0,0,1-.69.1,1.43,1.43,0,0,1-1.33-.78,1.39,1.39,0,0,1-.14-.66V64.12h-.16A.67.67,0,0,1,52.4,64a.53.53,0,0,1,0-.72.68.68,0,0,1,.48-.14H54v3a.65.65,0,0,0,.14.47.58.58,0,0,0,.44.15,1.77,1.77,0,0,0,.61-.12,4.22,4.22,0,0,0,.8-.43v-2h-.34a.67.67,0,0,1-.48-.14.53.53,0,0,1,0-.72.68.68,0,0,1,.48-.14Z"/><path class="cls-3" d="M59,63.12v.28a1.57,1.57,0,0,1,.41-.33A1,1,0,0,1,59.8,63a.85.85,0,0,1,.4.11,1.44,1.44,0,0,1,.39.32,1.79,1.79,0,0,1,.49-.32,1.3,1.3,0,0,1,.51-.1,1.19,1.19,0,0,1,.84.3,1.32,1.32,0,0,1,.43,1v2.24a.58.58,0,0,1,.43.14.49.49,0,0,1,.14.36.49.49,0,0,1-.14.36.67.67,0,0,1-.48.14h-.89V64.4a.49.49,0,0,0-.08-.32.3.3,0,0,0-.24-.09.5.5,0,0,0-.29.09,2.06,2.06,0,0,0-.41.46v2a.58.58,0,0,1,.43.14.49.49,0,0,1,.14.36.49.49,0,0,1-.14.36.67.67,0,0,1-.48.14H60V64.4a.48.48,0,0,0-.08-.32.3.3,0,0,0-.24-.09.57.57,0,0,0-.32.11,1.77,1.77,0,0,0-.38.44v2a.59.59,0,0,1,.43.14.49.49,0,0,1,.14.36.48.48,0,0,1-.14.36.68.68,0,0,1-.48.14h-.84a.68.68,0,0,1-.48-.14.49.49,0,0,1-.14-.36.48.48,0,0,1,.14-.36.59.59,0,0,1,.44-.14V64.12A.59.59,0,0,1,57.6,64a.49.49,0,0,1-.14-.36.48.48,0,0,1,.14-.36.68.68,0,0,1,.48-.14Z"/><path class="cls-3" d="M64.72,61.22v2.25a2.74,2.74,0,0,1,.69-.36,2.19,2.19,0,0,1,.71-.12,2.16,2.16,0,0,1,1.64.72,2.45,2.45,0,0,1,.67,1.73,2.23,2.23,0,0,1-.64,1.62,2.26,2.26,0,0,1-1.69.65,2.5,2.5,0,0,1-.72-.1,2.73,2.73,0,0,1-.67-.3v.24H63.63a.68.68,0,0,1-.48-.14.49.49,0,0,1-.14-.36.47.47,0,0,1,.15-.36.67.67,0,0,1,.48-.14h.16V62.22h-.16a.68.68,0,0,1-.48-.14.49.49,0,0,1-.14-.36.48.48,0,0,1,.14-.36.67.67,0,0,1,.48-.14Zm2.78,4.25a1.48,1.48,0,0,0-.4-1,1.35,1.35,0,0,0-2,0,1.46,1.46,0,0,0-.4,1,1.21,1.21,0,0,0,.36.91,1.67,1.67,0,0,0,2.05,0A1.19,1.19,0,0,0,67.5,65.47Z"/><path class="cls-3" d="M73.72,65.85H69.9a1.26,1.26,0,0,0,.52.63,1.83,1.83,0,0,0,1,.24,5.43,5.43,0,0,0,1.38-.24,2.21,2.21,0,0,1,.49-.1.4.4,0,0,1,.31.14.51.51,0,0,1,.13.36.45.45,0,0,1-.14.33,2.09,2.09,0,0,1-.89.34,6,6,0,0,1-1.35.16A2.4,2.4,0,0,1,69.56,67a2.28,2.28,0,0,1-.67-1.67,2.22,2.22,0,0,1,.72-1.72A2.4,2.4,0,0,1,71.28,63a2.49,2.49,0,0,1,1,.21,2.22,2.22,0,0,1,.71.46,3,3,0,0,1,.54.89,2.35,2.35,0,0,1,.15.86Zm-1-1a1.58,1.58,0,0,0-2.2-.64,1.55,1.55,0,0,0-.56.64Z"/><path class="cls-3" d="M76.67,63.12v.63a5,5,0,0,1,.92-.61,1.56,1.56,0,0,1,.63-.15,1.35,1.35,0,0,1,.88.36.67.67,0,0,1,.29.5.51.51,0,0,1-.14.36.44.44,0,0,1-.33.15.54.54,0,0,1-.36-.19.53.53,0,0,0-.34-.19,1.24,1.24,0,0,0-.58.26,9.3,9.3,0,0,0-1,.79v1.51H78a.67.67,0,0,1,.48.14.53.53,0,0,1,0,.72.68.68,0,0,1-.48.14H75.19a.68.68,0,0,1-.48-.14.49.49,0,0,1-.14-.36.48.48,0,0,1,.14-.36.67.67,0,0,1,.48-.14h.55V64.12h-.34a.67.67,0,0,1-.48-.14.53.53,0,0,1,0-.72.68.68,0,0,1,.48-.14Z"/><path class="cls-3" d="M94.66,64.21a2,2,0,0,1,.62.7,1.93,1.93,0,0,1,.2.89,1.88,1.88,0,0,1-.27,1,1.69,1.69,0,0,1-.78.68,3.28,3.28,0,0,1-1.34.23,3,3,0,0,1-1.63-.36.59.59,0,0,1-.3-.49.52.52,0,0,1,.13-.36.42.42,0,0,1,.32-.15.48.48,0,0,1,.27.1,1.18,1.18,0,0,0,.38.2,3.21,3.21,0,0,0,.75.07,2.29,2.29,0,0,0,1.18-.23.72.72,0,0,0,.36-.64,1,1,0,0,0-.21-.59,1.38,1.38,0,0,0-.57-.44,2.33,2.33,0,0,0-.69-.12.48.48,0,0,1-.48-.5.51.51,0,0,1,.14-.36.45.45,0,0,1,.34-.15h.5a.9.9,0,0,0,.36-.13.82.82,0,0,0,.29-.3.75.75,0,0,0,.11-.39.72.72,0,0,0-.26-.55,1.15,1.15,0,0,0-.78-.23,1.27,1.27,0,0,0-1,.42.68.68,0,0,1-.17.16.42.42,0,0,1-.21.05.43.43,0,0,1-.33-.15.51.51,0,0,1-.14-.36.86.86,0,0,1,.42-.65,2.44,2.44,0,0,1,1.52-.46,1.86,1.86,0,0,1,1.38.53,1.74,1.74,0,0,1,.52,1.27,1.7,1.7,0,0,1-.15.72A2,2,0,0,1,94.66,64.21Z"/><path class="cls-3" d="M4.57,75.72v2.13a2.33,2.33,0,0,1,.59-.28,2,2,0,0,1,.6-.09,2,2,0,0,1,.86.18,1.5,1.5,0,0,1,.62.55,1.71,1.71,0,0,1,.25,1v1.88a1,1,0,0,1,.46.07.49.49,0,0,1,.22.43.49.49,0,0,1-.14.36.67.67,0,0,1-.48.14H6.49A.67.67,0,0,1,6,81.92a.53.53,0,0,1,.08-.79.89.89,0,0,1,.46-.07V79.24a.73.73,0,0,0-.16-.54.86.86,0,0,0-.63-.21,1.13,1.13,0,0,0-.55.13,3,3,0,0,0-.64.56v1.88a.93.93,0,0,1,.46.07.49.49,0,0,1,.22.43.48.48,0,0,1-.14.36.68.68,0,0,1-.48.14H3.57a.68.68,0,0,1-.48-.14.53.53,0,0,1,.08-.79.89.89,0,0,1,.46-.07V76.72H3.48A.68.68,0,0,1,3,76.59a.49.49,0,0,1-.14-.36A.48.48,0,0,1,3,75.86a.67.67,0,0,1,.48-.14Z"/><path class="cls-3" d="M11.47,77.62v3.43h1.12a.67.67,0,0,1,.48.14.53.53,0,0,1,0,.72.68.68,0,0,1-.48.14H9.43a.68.68,0,0,1-.48-.14.49.49,0,0,1-.14-.36.48.48,0,0,1,.14-.36.67.67,0,0,1,.48-.14h1.12V78.62H9.79a.67.67,0,0,1-.48-.14.48.48,0,0,1-.15-.36.48.48,0,0,1,.14-.36.68.68,0,0,1,.48-.14Zm-.13-1.9v1.06H10.24V75.72Z"/><path class="cls-3" d="M16.27,78.62v2a.55.55,0,0,0,.12.42,1.08,1.08,0,0,0,.68.16,2.72,2.72,0,0,0,1.32-.33.83.83,0,0,1,.36-.13.41.41,0,0,1,.32.15.51.51,0,0,1,.13.36.46.46,0,0,1-.14.34,2.1,2.1,0,0,1-.88.42,4.08,4.08,0,0,1-1.11.19,1.85,1.85,0,0,1-1.3-.4,1.29,1.29,0,0,1-.43-1v-2.2H15a.67.67,0,0,1-.48-.14.53.53,0,0,1,0-.72.68.68,0,0,1,.48-.14h.34v-.9a.8.8,0,0,1,.13-.51.42.42,0,0,1,.34-.15.41.41,0,0,1,.33.15.8.8,0,0,1,.13.51v.9H18a.68.68,0,0,1,.48.14.49.49,0,0,1,.14.36.48.48,0,0,1-.14.36.67.67,0,0,1-.48.14Z"/><path class="cls-3" d="M7.86,94.85H4a1.26,1.26,0,0,0,.52.63,1.83,1.83,0,0,0,1,.24,5.43,5.43,0,0,0,1.38-.24,2.21,2.21,0,0,1,.49-.1.4.4,0,0,1,.31.14.51.51,0,0,1,.13.36.45.45,0,0,1-.14.33,2.09,2.09,0,0,1-.89.34,6,6,0,0,1-1.35.16A2.4,2.4,0,0,1,3.71,96,2.28,2.28,0,0,1,3,94.37a2.22,2.22,0,0,1,.72-1.72A2.4,2.4,0,0,1,5.43,92a2.49,2.49,0,0,1,1,.21,2.22,2.22,0,0,1,.71.46,3,3,0,0,1,.54.89,2.35,2.35,0,0,1,.15.86Zm-1-1a1.58,1.58,0,0,0-2.2-.64,1.55,1.55,0,0,0-.56.64Z"/><path class="cls-3" d="M10.07,92.12v.34a1.75,1.75,0,0,1,.56-.35A1.85,1.85,0,0,1,11.3,92a1.65,1.65,0,0,1,1.31.55A1.7,1.7,0,0,1,13,93.7v1.86a.59.59,0,0,1,.44.14.53.53,0,0,1,0,.72.68.68,0,0,1-.48.14H12.1a.68.68,0,0,1-.48-.14.49.49,0,0,1-.14-.36.48.48,0,0,1,.14-.36.59.59,0,0,1,.44-.14V93.67a.62.62,0,0,0-.16-.48.92.92,0,0,0-.64-.2,1.14,1.14,0,0,0-.56.13,2.57,2.57,0,0,0-.62.57v1.86a.94.94,0,0,1,.46.07.52.52,0,0,1,.08.79.68.68,0,0,1-.48.14H9.08a.68.68,0,0,1-.48-.14.53.53,0,0,1,.07-.79,1,1,0,0,1,.47-.07V93.12A.59.59,0,0,1,8.7,93a.49.49,0,0,1-.14-.36.48.48,0,0,1,.14-.36.68.68,0,0,1,.48-.14Z"/><path class="cls-3" d="M16.27,93.12v2a.55.55,0,0,0,.12.42,1.08,1.08,0,0,0,.68.16,2.72,2.72,0,0,0,1.32-.33.83.83,0,0,1,.36-.13.41.41,0,0,1,.32.15.51.51,0,0,1,.13.36.46.46,0,0,1-.14.34,2.1,2.1,0,0,1-.88.42,4.08,4.08,0,0,1-1.11.19,1.85,1.85,0,0,1-1.3-.4,1.29,1.29,0,0,1-.43-1v-2.2H15a.67.67,0,0,1-.48-.14.53.53,0,0,1,0-.72.68.68,0,0,1,.48-.14h.34v-.9a.8.8,0,0,1,.13-.51.42.42,0,0,1,.34-.15.41.41,0,0,1,.33.15.8.8,0,0,1,.13.51v.9H18a.68.68,0,0,1,.48.14.49.49,0,0,1,.14.36.48.48,0,0,1-.14.36.67.67,0,0,1-.48.14Z"/><path class="cls-3" d="M24.33,94.85H20.51a1.26,1.26,0,0,0,.52.63,1.83,1.83,0,0,0,1,.24,5.43,5.43,0,0,0,1.38-.24,2.21,2.21,0,0,1,.49-.1.4.4,0,0,1,.31.14.51.51,0,0,1,.13.36.45.45,0,0,1-.14.33,2.09,2.09,0,0,1-.89.34,6,6,0,0,1-1.35.16A2.4,2.4,0,0,1,20.17,96a2.28,2.28,0,0,1-.67-1.67,2.22,2.22,0,0,1,.72-1.72A2.4,2.4,0,0,1,21.89,92a2.49,2.49,0,0,1,1,.21,2.22,2.22,0,0,1,.71.46,3,3,0,0,1,.54.89,2.35,2.35,0,0,1,.15.86Zm-1-1a1.58,1.58,0,0,0-2.2-.64,1.55,1.55,0,0,0-.56.64Z"/><path class="cls-3" d="M27.28,92.12v.63a5,5,0,0,1,.92-.61,1.56,1.56,0,0,1,.63-.15,1.35,1.35,0,0,1,.88.36.67.67,0,0,1,.29.5.51.51,0,0,1-.14.36.44.44,0,0,1-.33.15.54.54,0,0,1-.36-.19.53.53,0,0,0-.34-.19,1.24,1.24,0,0,0-.58.26,9.3,9.3,0,0,0-1,.79v1.51h1.33a.67.67,0,0,1,.48.14.53.53,0,0,1,0,.72.68.68,0,0,1-.48.14H25.8a.68.68,0,0,1-.48-.14.49.49,0,0,1-.14-.36.48.48,0,0,1,.14-.36.67.67,0,0,1,.48-.14h.55V93.12H26a.67.67,0,0,1-.48-.14.53.53,0,0,1,0-.72.68.68,0,0,1,.48-.14Z"/><path class="cls-3" d="M39.29,96.56v-.23a2.9,2.9,0,0,1-.77.3,3.38,3.38,0,0,1-.77.1,1.73,1.73,0,0,1-1.22-.43,1.26,1.26,0,0,1-.47-.94,1.57,1.57,0,0,1,.6-1.17,2.37,2.37,0,0,1,1.65-.54,5.67,5.67,0,0,1,1,.1V93.5a.45.45,0,0,0-.18-.37,1.17,1.17,0,0,0-.68-.14,4.37,4.37,0,0,0-1.07.18,1.65,1.65,0,0,1-.38.06.41.41,0,0,1-.32-.14.53.53,0,0,1-.13-.37.49.49,0,0,1,0-.22.39.39,0,0,1,.13-.15,1.43,1.43,0,0,1,.34-.13,5.83,5.83,0,0,1,.7-.16A3.88,3.88,0,0,1,38.4,92a2,2,0,0,1,1.35.4,1.36,1.36,0,0,1,.48,1.1v2.06h.16a.67.67,0,0,1,.48.14.53.53,0,0,1,0,.72.68.68,0,0,1-.48.14Zm0-1.79a5,5,0,0,0-1-.12,1.61,1.61,0,0,0-1,.3.51.51,0,0,0-.25.39.27.27,0,0,0,.12.23,1.06,1.06,0,0,0,.62.16,2.42,2.42,0,0,0,.76-.14,2.7,2.7,0,0,0,.76-.39Z"/><path class="cls-3" d="M48.48,92.12v.34a1.75,1.75,0,0,1,.56-.35,1.85,1.85,0,0,1,.67-.12,1.65,1.65,0,0,1,1.31.55,1.7,1.7,0,0,1,.38,1.15v1.86a.59.59,0,0,1,.44.14.53.53,0,0,1,0,.72.68.68,0,0,1-.48.14h-.84a.68.68,0,0,1-.48-.14.49.49,0,0,1-.14-.36A.48.48,0,0,1,50,95.7a.59.59,0,0,1,.44-.14V93.67a.62.62,0,0,0-.16-.48.92.92,0,0,0-.64-.2,1.14,1.14,0,0,0-.56.13,2.57,2.57,0,0,0-.62.57v1.86a.94.94,0,0,1,.46.07.52.52,0,0,1,.08.79.68.68,0,0,1-.48.14H47.49a.68.68,0,0,1-.48-.14.53.53,0,0,1,.07-.79,1,1,0,0,1,.47-.07V93.12a.59.59,0,0,1-.44-.14.49.49,0,0,1-.14-.36.48.48,0,0,1,.14-.36.68.68,0,0,1,.48-.14Z"/><path class="cls-3" d="M56.89,92.12v3.43a.59.59,0,0,1,.44.14.49.49,0,0,1,.14.36.48.48,0,0,1-.14.36.68.68,0,0,1-.48.14H56v-.23a4.33,4.33,0,0,1-.76.29,2.65,2.65,0,0,1-.69.1,1.43,1.43,0,0,1-1.33-.78,1.39,1.39,0,0,1-.14-.66V93.12h-.16A.67.67,0,0,1,52.4,93a.53.53,0,0,1,0-.72.68.68,0,0,1,.48-.14H54v3a.65.65,0,0,0,.14.47.58.58,0,0,0,.44.15,1.77,1.77,0,0,0,.61-.12,4.22,4.22,0,0,0,.8-.43v-2h-.34a.67.67,0,0,1-.48-.14.53.53,0,0,1,0-.72.68.68,0,0,1,.48-.14Z"/><path class="cls-3" d="M59,92.12v.28a1.57,1.57,0,0,1,.41-.33A1,1,0,0,1,59.8,92a.85.85,0,0,1,.4.11,1.44,1.44,0,0,1,.39.32,1.79,1.79,0,0,1,.49-.32,1.3,1.3,0,0,1,.51-.1,1.19,1.19,0,0,1,.84.3,1.32,1.32,0,0,1,.43,1v2.24a.58.58,0,0,1,.43.14.49.49,0,0,1,.14.36.49.49,0,0,1-.14.36.67.67,0,0,1-.48.14h-.89V93.4a.49.49,0,0,0-.08-.32.3.3,0,0,0-.24-.09.5.5,0,0,0-.29.09,2.06,2.06,0,0,0-.41.46v2a.58.58,0,0,1,.43.14.49.49,0,0,1,.14.36.49.49,0,0,1-.14.36.67.67,0,0,1-.48.14H60V93.4a.48.48,0,0,0-.08-.32.3.3,0,0,0-.24-.09.57.57,0,0,0-.32.11,1.77,1.77,0,0,0-.38.44v2a.59.59,0,0,1,.43.14.49.49,0,0,1,.14.36.48.48,0,0,1-.14.36.68.68,0,0,1-.48.14h-.84a.68.68,0,0,1-.48-.14.49.49,0,0,1-.14-.36.48.48,0,0,1,.14-.36.59.59,0,0,1,.44-.14V93.12A.59.59,0,0,1,57.6,93a.49.49,0,0,1-.14-.36.48.48,0,0,1,.14-.36.68.68,0,0,1,.48-.14Z"/><path class="cls-3" d="M64.72,90.22v2.25a2.74,2.74,0,0,1,.69-.36,2.19,2.19,0,0,1,.71-.12,2.16,2.16,0,0,1,1.64.72,2.45,2.45,0,0,1,.67,1.73,2.23,2.23,0,0,1-.64,1.62,2.26,2.26,0,0,1-1.69.65,2.5,2.5,0,0,1-.72-.1,2.73,2.73,0,0,1-.67-.3v.24H63.63a.68.68,0,0,1-.48-.14.49.49,0,0,1-.14-.36.47.47,0,0,1,.15-.36.67.67,0,0,1,.48-.14h.16V91.23h-.16a.68.68,0,0,1-.48-.14.49.49,0,0,1-.14-.36.48.48,0,0,1,.14-.36.67.67,0,0,1,.48-.14Zm2.78,4.25a1.48,1.48,0,0,0-.4-1,1.35,1.35,0,0,0-2,0,1.46,1.46,0,0,0-.4,1,1.21,1.21,0,0,0,.36.91,1.67,1.67,0,0,0,2.05,0A1.19,1.19,0,0,0,67.5,94.47Z"/><path class="cls-3" d="M73.72,94.85H69.9a1.26,1.26,0,0,0,.52.63,1.83,1.83,0,0,0,1,.24,5.43,5.43,0,0,0,1.38-.24,2.21,2.21,0,0,1,.49-.1.4.4,0,0,1,.31.14.51.51,0,0,1,.13.36.45.45,0,0,1-.14.33,2.09,2.09,0,0,1-.89.34,6,6,0,0,1-1.35.16A2.4,2.4,0,0,1,69.56,96a2.28,2.28,0,0,1-.67-1.67,2.22,2.22,0,0,1,.72-1.72A2.4,2.4,0,0,1,71.28,92a2.49,2.49,0,0,1,1,.21,2.22,2.22,0,0,1,.71.46,3,3,0,0,1,.54.89,2.35,2.35,0,0,1,.15.86Zm-1-1a1.58,1.58,0,0,0-2.2-.64,1.55,1.55,0,0,0-.56.64Z"/><path class="cls-3" d="M76.67,92.12v.63a5,5,0,0,1,.92-.61,1.56,1.56,0,0,1,.63-.15,1.35,1.35,0,0,1,.88.36.67.67,0,0,1,.29.5.51.51,0,0,1-.14.36.44.44,0,0,1-.33.15.54.54,0,0,1-.36-.19.53.53,0,0,0-.34-.19,1.24,1.24,0,0,0-.58.26,9.3,9.3,0,0,0-1,.79v1.51H78a.67.67,0,0,1,.48.14.53.53,0,0,1,0,.72.68.68,0,0,1-.48.14H75.19a.68.68,0,0,1-.48-.14.49.49,0,0,1-.14-.36.48.48,0,0,1,.14-.36.67.67,0,0,1,.48-.14h.55V93.12h-.34a.67.67,0,0,1-.48-.14.53.53,0,0,1,0-.72.68.68,0,0,1,.48-.14Z"/><path class="cls-3" d="M94.69,90.24v3.92a.6.6,0,0,1,.44.14.53.53,0,0,1,0,.72.59.59,0,0,1-.43.14v.4a.59.59,0,0,1,.44.14.49.49,0,0,1,.14.36.48.48,0,0,1-.14.36.68.68,0,0,1-.48.14H93.4a.68.68,0,0,1-.48-.14.49.49,0,0,1-.14-.36.48.48,0,0,1,.14-.36.67.67,0,0,1,.48-.14h.36v-.4H91.23v-.83l2.23-4.08Zm-.93,3.92V91.69l-1.35,2.46Z"/><path class="cls-3" d="M4.09,106.62v.28a1.57,1.57,0,0,1,.41-.33,1,1,0,0,1,.42-.09.85.85,0,0,1,.4.11,1.44,1.44,0,0,1,.39.32,1.79,1.79,0,0,1,.49-.32,1.3,1.3,0,0,1,.51-.1,1.19,1.19,0,0,1,.84.3,1.32,1.32,0,0,1,.43,1v2.24a.58.58,0,0,1,.43.14.49.49,0,0,1,.14.36.49.49,0,0,1-.14.36.67.67,0,0,1-.48.14H7V107.9a.49.49,0,0,0-.08-.32.3.3,0,0,0-.24-.09.5.5,0,0,0-.29.09A2.06,2.06,0,0,0,6,108v2a.58.58,0,0,1,.43.14.49.49,0,0,1,.14.36.49.49,0,0,1-.14.36.67.67,0,0,1-.48.14H5.11V107.9a.48.48,0,0,0-.08-.32.3.3,0,0,0-.24-.09.57.57,0,0,0-.32.11,1.77,1.77,0,0,0-.38.44v2a.59.59,0,0,1,.43.14.49.49,0,0,1,.14.36.48.48,0,0,1-.14.36.68.68,0,0,1-.48.14H3.2a.68.68,0,0,1-.48-.14.49.49,0,0,1-.14-.36.48.48,0,0,1,.14-.36.59.59,0,0,1,.44-.14v-2.43a.59.59,0,0,1-.44-.14.49.49,0,0,1-.14-.36.48.48,0,0,1,.14-.36.68.68,0,0,1,.48-.14Z"/><path class="cls-3" d="M11.47,106.62v3.43h1.12a.67.67,0,0,1,.48.14.53.53,0,0,1,0,.72.68.68,0,0,1-.48.14H9.43a.68.68,0,0,1-.48-.14.49.49,0,0,1-.14-.36.48.48,0,0,1,.14-.36.67.67,0,0,1,.48-.14h1.12v-2.43H9.79a.67.67,0,0,1-.48-.14.48.48,0,0,1-.15-.36.48.48,0,0,1,.14-.36.68.68,0,0,1,.48-.14Zm-.13-1.9v1.06H10.24v-1.06Z"/><path class="cls-3" d="M17.51,107.8a1.77,1.77,0,0,0-1-.3,1.66,1.66,0,0,0-.86.19c-.09.06-.14.12-.14.18s.06.15.19.22a2.42,2.42,0,0,0,.65.15,7.13,7.13,0,0,1,1.29.27,1.56,1.56,0,0,1,.74.54,1.26,1.26,0,0,1,.26.75,1.12,1.12,0,0,1-.44.9,2.48,2.48,0,0,1-1.64.52,3.51,3.51,0,0,1-.75-.08,2.62,2.62,0,0,1-.63-.22.53.53,0,0,1-.15.1.4.4,0,0,1-.16,0,.43.43,0,0,1-.35-.15.8.8,0,0,1-.13-.52V110a.8.8,0,0,1,.13-.51.42.42,0,0,1,.34-.15.41.41,0,0,1,.28.1.69.69,0,0,1,.18.34,1.42,1.42,0,0,0,.51.3,2.19,2.19,0,0,0,.69.1,1.92,1.92,0,0,0,1-.21c.11-.07.17-.15.17-.22a.37.37,0,0,0-.24-.32,3.34,3.34,0,0,0-1-.21,2.69,2.69,0,0,1-1.5-.49,1.16,1.16,0,0,1-.38-.88A1.12,1.12,0,0,1,15,107a2.23,2.23,0,0,1,1.5-.49,2.92,2.92,0,0,1,.62.07,2.5,2.5,0,0,1,.57.2l.16-.1a.34.34,0,0,1,.14,0,.4.4,0,0,1,.32.15.82.82,0,0,1,.13.51v.24a.92.92,0,0,1-.07.44.45.45,0,0,1-.39.22.43.43,0,0,1-.29-.11A.52.52,0,0,1,17.51,107.8Z"/><path class="cls-3" d="M23,107.8a1.77,1.77,0,0,0-1-.3,1.66,1.66,0,0,0-.86.19c-.09.06-.14.12-.14.18s.06.15.19.22a2.42,2.42,0,0,0,.65.15,7.13,7.13,0,0,1,1.29.27,1.56,1.56,0,0,1,.74.54,1.26,1.26,0,0,1,.26.75,1.12,1.12,0,0,1-.44.9,2.48,2.48,0,0,1-1.64.52,3.51,3.51,0,0,1-.75-.08,2.62,2.62,0,0,1-.63-.22.53.53,0,0,1-.15.1.4.4,0,0,1-.16,0,.43.43,0,0,1-.35-.15.8.8,0,0,1-.13-.52V110a.8.8,0,0,1,.13-.51.42.42,0,0,1,.34-.15.41.41,0,0,1,.28.1.69.69,0,0,1,.18.34,1.42,1.42,0,0,0,.51.3,2.19,2.19,0,0,0,.69.1,1.92,1.92,0,0,0,1-.21c.11-.07.17-.15.17-.22a.37.37,0,0,0-.24-.32,3.34,3.34,0,0,0-1-.21,2.69,2.69,0,0,1-1.5-.49,1.16,1.16,0,0,1-.38-.88,1.12,1.12,0,0,1,.42-.89,2.23,2.23,0,0,1,1.5-.49,2.92,2.92,0,0,1,.62.07,2.5,2.5,0,0,1,.57.2l.16-.1a.34.34,0,0,1,.14,0,.4.4,0,0,1,.32.15.82.82,0,0,1,.13.51v.24a.92.92,0,0,1-.07.44.45.45,0,0,1-.39.22.43.43,0,0,1-.29-.11A.52.52,0,0,1,23,107.8Z"/><path class="cls-3" d="M7.86,123.85H4a1.26,1.26,0,0,0,.52.63,1.83,1.83,0,0,0,1,.24,5.43,5.43,0,0,0,1.38-.24,2.21,2.21,0,0,1,.49-.1.4.4,0,0,1,.31.14.51.51,0,0,1,.13.36.45.45,0,0,1-.14.33,2.09,2.09,0,0,1-.89.34,6,6,0,0,1-1.35.16A2.4,2.4,0,0,1,3.71,125,2.28,2.28,0,0,1,3,123.37a2.22,2.22,0,0,1,.72-1.72A2.4,2.4,0,0,1,5.43,121a2.49,2.49,0,0,1,1,.21,2.22,2.22,0,0,1,.71.46,3,3,0,0,1,.54.89,2.35,2.35,0,0,1,.15.86Zm-1-1a1.58,1.58,0,0,0-2.2-.64,1.55,1.55,0,0,0-.56.64Z"/><path class="cls-3" d="M10.07,121.12v.34a1.75,1.75,0,0,1,.56-.35,1.85,1.85,0,0,1,.67-.12,1.65,1.65,0,0,1,1.31.55A1.7,1.7,0,0,1,13,122.7v1.86a.59.59,0,0,1,.44.14.53.53,0,0,1,0,.72.68.68,0,0,1-.48.14H12.1a.68.68,0,0,1-.48-.14.49.49,0,0,1-.14-.36.48.48,0,0,1,.14-.36.59.59,0,0,1,.44-.14v-1.89a.62.62,0,0,0-.16-.48.92.92,0,0,0-.64-.2,1.14,1.14,0,0,0-.56.13,2.57,2.57,0,0,0-.62.57v1.86a.94.94,0,0,1,.46.07.52.52,0,0,1,.08.79.68.68,0,0,1-.48.14H9.08a.68.68,0,0,1-.48-.14.53.53,0,0,1,.07-.79,1,1,0,0,1,.47-.07v-2.43A.59.59,0,0,1,8.7,122a.49.49,0,0,1-.14-.36.48.48,0,0,1,.14-.36.68.68,0,0,1,.48-.14Z"/><path class="cls-3" d="M16.27,122.12v2a.55.55,0,0,0,.12.42,1.08,1.08,0,0,0,.68.16,2.72,2.72,0,0,0,1.32-.33.83.83,0,0,1,.36-.13.41.41,0,0,1,.32.15.51.51,0,0,1,.13.36.46.46,0,0,1-.14.34,2.1,2.1,0,0,1-.88.42,4.08,4.08,0,0,1-1.11.19,1.85,1.85,0,0,1-1.3-.4,1.29,1.29,0,0,1-.43-1v-2.2H15a.67.67,0,0,1-.48-.14.53.53,0,0,1,0-.72.68.68,0,0,1,.48-.14h.34v-.9a.8.8,0,0,1,.13-.51.42.42,0,0,1,.34-.15.41.41,0,0,1,.33.15.8.8,0,0,1,.13.51v.9H18a.68.68,0,0,1,.48.14.49.49,0,0,1,.14.36.48.48,0,0,1-.14.36.67.67,0,0,1-.48.14Z"/><path class="cls-3" d="M24.33,123.85H20.51a1.26,1.26,0,0,0,.52.63,1.83,1.83,0,0,0,1,.24,5.43,5.43,0,0,0,1.38-.24,2.21,2.21,0,0,1,.49-.1.4.4,0,0,1,.31.14.51.51,0,0,1,.13.36.45.45,0,0,1-.14.33,2.09,2.09,0,0,1-.89.34,6,6,0,0,1-1.35.16,2.4,2.4,0,0,1-1.79-.68,2.28,2.28,0,0,1-.67-1.67,2.22,2.22,0,0,1,.72-1.72,2.4,2.4,0,0,1,1.67-.66,2.49,2.49,0,0,1,1,.21,2.22,2.22,0,0,1,.71.46,3,3,0,0,1,.54.89,2.35,2.35,0,0,1,.15.86Zm-1-1a1.58,1.58,0,0,0-2.2-.64,1.55,1.55,0,0,0-.56.64Z"/><path class="cls-3" d="M27.28,121.12v.63a5,5,0,0,1,.92-.61,1.56,1.56,0,0,1,.63-.15,1.35,1.35,0,0,1,.88.36.67.67,0,0,1,.29.5.51.51,0,0,1-.14.36.44.44,0,0,1-.33.15.54.54,0,0,1-.36-.19.53.53,0,0,0-.34-.19,1.24,1.24,0,0,0-.58.26,9.3,9.3,0,0,0-1,.79v1.51h1.33a.67.67,0,0,1,.48.14.53.53,0,0,1,0,.72.68.68,0,0,1-.48.14H25.8a.68.68,0,0,1-.48-.14.49.49,0,0,1-.14-.36.48.48,0,0,1,.14-.36.67.67,0,0,1,.48-.14h.55v-2.43H26a.67.67,0,0,1-.48-.14.53.53,0,0,1,0-.72.68.68,0,0,1,.48-.14Z"/><path class="cls-3" d="M39.29,125.56v-.23a2.9,2.9,0,0,1-.77.3,3.38,3.38,0,0,1-.77.1,1.73,1.73,0,0,1-1.22-.43,1.26,1.26,0,0,1-.47-.94,1.57,1.57,0,0,1,.6-1.17,2.37,2.37,0,0,1,1.65-.54,5.67,5.67,0,0,1,1,.1v-.24a.45.45,0,0,0-.18-.37,1.17,1.17,0,0,0-.68-.14,4.37,4.37,0,0,0-1.07.18,1.65,1.65,0,0,1-.38.06.41.41,0,0,1-.32-.14.53.53,0,0,1-.13-.37.49.49,0,0,1,0-.22.39.39,0,0,1,.13-.15,1.43,1.43,0,0,1,.34-.13,5.83,5.83,0,0,1,.7-.16,3.88,3.88,0,0,1,.65-.06,2,2,0,0,1,1.35.4,1.36,1.36,0,0,1,.48,1.1v2.06h.16a.67.67,0,0,1,.48.14.53.53,0,0,1,0,.72.68.68,0,0,1-.48.14Zm0-1.79a5,5,0,0,0-1-.12,1.61,1.61,0,0,0-1,.3.51.51,0,0,0-.25.39.27.27,0,0,0,.12.23,1.06,1.06,0,0,0,.62.16,2.42,2.42,0,0,0,.76-.14,2.7,2.7,0,0,0,.76-.39Z"/><path class="cls-3" d="M48.48,121.12v.34a1.75,1.75,0,0,1,.56-.35,1.85,1.85,0,0,1,.67-.12,1.65,1.65,0,0,1,1.31.55,1.7,1.7,0,0,1,.38,1.15v1.86a.59.59,0,0,1,.44.14.53.53,0,0,1,0,.72.68.68,0,0,1-.48.14h-.84a.68.68,0,0,1-.48-.14.49.49,0,0,1-.14-.36.48.48,0,0,1,.14-.36.59.59,0,0,1,.44-.14v-1.89a.62.62,0,0,0-.16-.48.92.92,0,0,0-.64-.2,1.14,1.14,0,0,0-.56.13,2.57,2.57,0,0,0-.62.57v1.86a.94.94,0,0,1,.46.07.52.52,0,0,1,.08.79.68.68,0,0,1-.48.14H47.49a.68.68,0,0,1-.48-.14.53.53,0,0,1,.07-.79,1,1,0,0,1,.47-.07v-2.43a.59.59,0,0,1-.44-.14.49.49,0,0,1-.14-.36.48.48,0,0,1,.14-.36.68.68,0,0,1,.48-.14Z"/><path class="cls-3" d="M56.89,121.12v3.43a.59.59,0,0,1,.44.14.49.49,0,0,1,.14.36.48.48,0,0,1-.14.36.68.68,0,0,1-.48.14H56v-.23a4.33,4.33,0,0,1-.76.29,2.65,2.65,0,0,1-.69.1,1.43,1.43,0,0,1-1.33-.78,1.39,1.39,0,0,1-.14-.66v-2.15h-.16a.67.67,0,0,1-.48-.14.53.53,0,0,1,0-.72.68.68,0,0,1,.48-.14H54v3a.65.65,0,0,0,.14.47.58.58,0,0,0,.44.15,1.77,1.77,0,0,0,.61-.12,4.22,4.22,0,0,0,.8-.43v-2h-.34a.67.67,0,0,1-.48-.14.53.53,0,0,1,0-.72.68.68,0,0,1,.48-.14Z"/><path class="cls-3" d="M59,121.12v.28a1.57,1.57,0,0,1,.41-.33,1,1,0,0,1,.42-.09.85.85,0,0,1,.4.11,1.44,1.44,0,0,1,.39.32,1.79,1.79,0,0,1,.49-.32,1.3,1.3,0,0,1,.51-.1,1.19,1.19,0,0,1,.84.3,1.32,1.32,0,0,1,.43,1v2.24a.58.58,0,0,1,.43.14.49.49,0,0,1,.14.36.49.49,0,0,1-.14.36.67.67,0,0,1-.48.14h-.89V122.4a.49.49,0,0,0-.08-.32.3.3,0,0,0-.24-.09.5.5,0,0,0-.29.09,2.06,2.06,0,0,0-.41.46v2a.58.58,0,0,1,.43.14.49.49,0,0,1,.14.36.49.49,0,0,1-.14.36.67.67,0,0,1-.48.14H60V122.4a.48.48,0,0,0-.08-.32.3.3,0,0,0-.24-.09.57.57,0,0,0-.32.11,1.77,1.77,0,0,0-.38.44v2a.59.59,0,0,1,.43.14.49.49,0,0,1,.14.36.48.48,0,0,1-.14.36.68.68,0,0,1-.48.14h-.84a.68.68,0,0,1-.48-.14.49.49,0,0,1-.14-.36.48.48,0,0,1,.14-.36.59.59,0,0,1,.44-.14v-2.43a.59.59,0,0,1-.44-.14.49.49,0,0,1-.14-.36.48.48,0,0,1,.14-.36.68.68,0,0,1,.48-.14Z"/><path class="cls-3" d="M64.72,119.22v2.25a2.74,2.74,0,0,1,.69-.36,2.19,2.19,0,0,1,.71-.12,2.16,2.16,0,0,1,1.64.72,2.45,2.45,0,0,1,.67,1.73,2.23,2.23,0,0,1-.64,1.62,2.26,2.26,0,0,1-1.69.65,2.5,2.5,0,0,1-.72-.1,2.73,2.73,0,0,1-.67-.3v.24H63.63a.68.68,0,0,1-.48-.14.49.49,0,0,1-.14-.36.47.47,0,0,1,.15-.36.67.67,0,0,1,.48-.14h.16v-4.33h-.16a.68.68,0,0,1-.48-.14.49.49,0,0,1-.14-.36.48.48,0,0,1,.14-.36.67.67,0,0,1,.48-.14Zm2.78,4.25a1.48,1.48,0,0,0-.4-1,1.35,1.35,0,0,0-2,0,1.46,1.46,0,0,0-.4,1,1.21,1.21,0,0,0,.36.91,1.67,1.67,0,0,0,2.05,0A1.19,1.19,0,0,0,67.5,123.47Z"/><path class="cls-3" d="M73.72,123.85H69.9a1.26,1.26,0,0,0,.52.63,1.83,1.83,0,0,0,1,.24,5.43,5.43,0,0,0,1.38-.24,2.21,2.21,0,0,1,.49-.1.4.4,0,0,1,.31.14.51.51,0,0,1,.13.36.45.45,0,0,1-.14.33,2.09,2.09,0,0,1-.89.34,6,6,0,0,1-1.35.16,2.4,2.4,0,0,1-1.79-.68,2.28,2.28,0,0,1-.67-1.67,2.22,2.22,0,0,1,.72-1.72,2.4,2.4,0,0,1,1.67-.66,2.49,2.49,0,0,1,1,.21,2.22,2.22,0,0,1,.71.46,3,3,0,0,1,.54.89,2.35,2.35,0,0,1,.15.86Zm-1-1a1.58,1.58,0,0,0-2.2-.64,1.55,1.55,0,0,0-.56.64Z"/><path class="cls-3" d="M76.67,121.12v.63a5,5,0,0,1,.92-.61,1.56,1.56,0,0,1,.63-.15,1.35,1.35,0,0,1,.88.36.67.67,0,0,1,.29.5.51.51,0,0,1-.14.36.44.44,0,0,1-.33.15.54.54,0,0,1-.36-.19.53.53,0,0,0-.34-.19,1.24,1.24,0,0,0-.58.26,9.3,9.3,0,0,0-1,.79v1.51H78a.67.67,0,0,1,.48.14.53.53,0,0,1,0,.72.68.68,0,0,1-.48.14H75.19a.68.68,0,0,1-.48-.14.49.49,0,0,1-.14-.36.48.48,0,0,1,.14-.36.67.67,0,0,1,.48-.14h.55v-2.43h-.34a.67.67,0,0,1-.48-.14.53.53,0,0,1,0-.72.68.68,0,0,1,.48-.14Z"/><path class="cls-3" d="M93.8,119.08v5.48h.94a.67.67,0,0,1,.48.14.53.53,0,0,1,0,.72.68.68,0,0,1-.48.14H91.93a.68.68,0,0,1-.48-.14.49.49,0,0,1-.14-.36.48.48,0,0,1,.14-.36.67.67,0,0,1,.48-.14h.94v-4.17l-.83.23a1.18,1.18,0,0,1-.3.06.39.39,0,0,1-.31-.15.55.55,0,0,1-.13-.37.48.48,0,0,1,.09-.32.84.84,0,0,1,.4-.2Z"/><path class="cls-3" d="M4.76,138.39v1.67H3.67a.68.68,0,0,1-.48-.14.49.49,0,0,1-.14-.36.47.47,0,0,1,.15-.36.67.67,0,0,1,.48-.14h.16v-4.33H3.67a.68.68,0,0,1-.48-.14.49.49,0,0,1-.14-.36.48.48,0,0,1,.14-.36.67.67,0,0,1,.48-.14H4.76v3.37l.73-.63a.76.76,0,0,1-.11-.34.49.49,0,0,1,.14-.36.67.67,0,0,1,.48-.14H7.05a.68.68,0,0,1,.48.14.49.49,0,0,1,.14.36.48.48,0,0,1-.14.36.67.67,0,0,1-.48.14H6.8l-1.13,1,1.52,1.45h.27a.67.67,0,0,1,.48.14.53.53,0,0,1,0,.72.68.68,0,0,1-.48.14H6.39a.68.68,0,0,1-.48-.14.49.49,0,0,1-.14-.36.59.59,0,0,1,.16-.38l-1-.94Z"/><path class="cls-3" d="M11.47,135.62v3.43h1.12a.67.67,0,0,1,.48.14.53.53,0,0,1,0,.72.68.68,0,0,1-.48.14H9.43a.68.68,0,0,1-.48-.14.49.49,0,0,1-.14-.36.48.48,0,0,1,.14-.36.67.67,0,0,1,.48-.14h1.12v-2.43H9.79a.67.67,0,0,1-.48-.14.48.48,0,0,1-.15-.36.48.48,0,0,1,.14-.36.68.68,0,0,1,.48-.14Zm-.13-1.9v1.06H10.24v-1.06Z"/><path class="cls-3" d="M17,133.72v5.33h1.12a.67.67,0,0,1,.48.14.53.53,0,0,1,0,.72.68.68,0,0,1-.48.14H14.92a.68.68,0,0,1-.48-.14.49.49,0,0,1-.14-.36.48.48,0,0,1,.14-.36.67.67,0,0,1,.48-.14H16v-4.33h-.75a.68.68,0,0,1-.48-.14.48.48,0,0,1-.15-.36.48.48,0,0,1,.14-.36.67.67,0,0,1,.48-.14Z"/><path class="cls-3" d="M22.45,133.72v5.33h1.12a.67.67,0,0,1,.48.14.53.53,0,0,1,0,.72.68.68,0,0,1-.48.14H20.41a.68.68,0,0,1-.48-.14.49.49,0,0,1-.14-.36.48.48,0,0,1,.14-.36.67.67,0,0,1,.48-.14h1.12v-4.33h-.75a.68.68,0,0,1-.48-.14.48.48,0,0,1-.15-.36.48.48,0,0,1,.14-.36.67.67,0,0,1,.48-.14Z"/><path class="cls-3" d="M6,152.07v1.48h.63a.67.67,0,0,1,.48.14.53.53,0,0,1,0,.72.68.68,0,0,1-.48.14H4.44a.67.67,0,0,1-.47-.14.49.49,0,0,1-.14-.36A.48.48,0,0,1,4,153.7a.66.66,0,0,1,.47-.14h.63v-1.48l-1.54-2.43a.62.62,0,0,1-.45-.14.53.53,0,0,1,0-.72.67.67,0,0,1,.48-.14H4.4a.68.68,0,0,1,.48.14.48.48,0,0,1,.14.36.54.54,0,0,1-.37.5l.88,1.4.86-1.4a.62.62,0,0,1-.29-.21.51.51,0,0,1-.09-.29.48.48,0,0,1,.14-.36.7.7,0,0,1,.48-.14h.88a.68.68,0,0,1,.48.14.53.53,0,0,1,0,.72.67.67,0,0,1-.47.14Z"/><path class="cls-3" d="M13.43,152.42a2.29,2.29,0,0,1-.3,1.12,2.16,2.16,0,0,1-.89.86,2.54,2.54,0,0,1-1.23.32,2.51,2.51,0,0,1-1.22-.32,2.17,2.17,0,0,1-.89-.86,2.29,2.29,0,0,1-.3-1.13,2.47,2.47,0,0,1,.31-1.18,2.26,2.26,0,0,1,.89-.91A2.39,2.39,0,0,1,11,150a2.42,2.42,0,0,1,1.22.34,2.23,2.23,0,0,1,.89.91A2.51,2.51,0,0,1,13.43,152.42Zm-.93,0a1.4,1.4,0,0,0-.32-.89,1.5,1.5,0,0,0-2.21-.11,1.4,1.4,0,0,0-.42,1,1.2,1.2,0,0,0,.43.88,1.56,1.56,0,0,0,2.1,0A1.21,1.21,0,0,0,12.5,152.43Z"/><path class="cls-3" d="M18.48,150.12v3.43a.59.59,0,0,1,.44.14.49.49,0,0,1,.14.36.48.48,0,0,1-.14.36.68.68,0,0,1-.48.14h-.89v-.23a4.33,4.33,0,0,1-.76.29,2.65,2.65,0,0,1-.69.1,1.43,1.43,0,0,1-1.33-.78,1.39,1.39,0,0,1-.14-.66v-2.15h-.16A.67.67,0,0,1,14,151a.53.53,0,0,1,0-.72.68.68,0,0,1,.48-.14h1.09v3a.65.65,0,0,0,.14.47.58.58,0,0,0,.44.15,1.77,1.77,0,0,0,.61-.12,4.22,4.22,0,0,0,.8-.43v-2h-.34a.67.67,0,0,1-.48-.14.53.53,0,0,1,0-.72.68.68,0,0,1,.48-.14Z"/><path class="cls-3" d="M27.25,151.12v2a.55.55,0,0,0,.12.42,1.08,1.08,0,0,0,.68.16,2.72,2.72,0,0,0,1.32-.33.83.83,0,0,1,.36-.13.41.41,0,0,1,.32.15.51.51,0,0,1,.13.36.46.46,0,0,1-.14.34,2.1,2.1,0,0,1-.88.42,4.08,4.08,0,0,1-1.11.19,1.85,1.85,0,0,1-1.3-.4,1.29,1.29,0,0,1-.43-1v-2.2H26a.67.67,0,0,1-.48-.14.53.53,0,0,1,0-.72.68.68,0,0,1,.48-.14h.34v-.9a.8.8,0,0,1,.13-.51.42.42,0,0,1,.34-.15.41.41,0,0,1,.33.15.8.8,0,0,1,.13.51v.9H29a.68.68,0,0,1,.48.14.49.49,0,0,1,.14.36.48.48,0,0,1-.14.36.67.67,0,0,1-.48.14Z"/><path class="cls-3" d="M35.38,152.42a2.29,2.29,0,0,1-.3,1.12,2.16,2.16,0,0,1-.89.86,2.54,2.54,0,0,1-1.23.32,2.51,2.51,0,0,1-1.22-.32,2.17,2.17,0,0,1-.89-.86,2.29,2.29,0,0,1-.3-1.13,2.47,2.47,0,0,1,.31-1.18,2.26,2.26,0,0,1,.89-.91A2.39,2.39,0,0,1,33,150a2.42,2.42,0,0,1,1.22.34,2.23,2.23,0,0,1,.89.91A2.51,2.51,0,0,1,35.38,152.42Zm-.93,0a1.4,1.4,0,0,0-.32-.89,1.5,1.5,0,0,0-2.21-.11,1.4,1.4,0,0,0-.42,1,1.2,1.2,0,0,0,.43.88,1.56,1.56,0,0,0,2.1,0A1.21,1.21,0,0,0,34.45,152.43Z"/><path class="cls-3" d="M40.87,152.42a2.29,2.29,0,0,1-.3,1.12,2.16,2.16,0,0,1-.89.86,2.54,2.54,0,0,1-1.23.32,2.51,2.51,0,0,1-1.22-.32,2.17,2.17,0,0,1-.89-.86,2.29,2.29,0,0,1-.3-1.13,2.47,2.47,0,0,1,.31-1.18,2.26,2.26,0,0,1,.89-.91,2.39,2.39,0,0,1,1.21-.33,2.42,2.42,0,0,1,1.22.34,2.23,2.23,0,0,1,.89.91A2.51,2.51,0,0,1,40.87,152.42Zm-.93,0a1.4,1.4,0,0,0-.32-.89,1.5,1.5,0,0,0-2.21-.11,1.4,1.4,0,0,0-.42,1,1.2,1.2,0,0,0,.43.88,1.56,1.56,0,0,0,2.1,0A1.21,1.21,0,0,0,39.94,152.43Z"/><path class="cls-3" d="M43.18,152.89v1.67H42.09a.68.68,0,0,1-.48-.14.49.49,0,0,1-.14-.36.47.47,0,0,1,.15-.36.67.67,0,0,1,.48-.14h.16v-4.33h-.16a.68.68,0,0,1-.48-.14.49.49,0,0,1-.14-.36.48.48,0,0,1,.14-.36.67.67,0,0,1,.48-.14h1.09v3.37l.73-.63a.76.76,0,0,1-.11-.34.49.49,0,0,1,.14-.36.67.67,0,0,1,.48-.14h1.06a.68.68,0,0,1,.48.14.49.49,0,0,1,.14.36.48.48,0,0,1-.14.36.67.67,0,0,1-.48.14h-.26l-1.13,1,1.52,1.45h.27a.67.67,0,0,1,.48.14.53.53,0,0,1,0,.72.68.68,0,0,1-.48.14H44.8a.68.68,0,0,1-.48-.14.49.49,0,0,1-.14-.36.59.59,0,0,1,.16-.38l-1-.94Z"/><path class="cls-3" d="M56.28,148.24v3.92a.6.6,0,0,1,.44.14.53.53,0,0,1,0,.72.59.59,0,0,1-.43.14v.4a.59.59,0,0,1,.44.14.49.49,0,0,1,.14.36.48.48,0,0,1-.14.36.68.68,0,0,1-.48.14H55a.68.68,0,0,1-.48-.14.49.49,0,0,1-.14-.36.48.48,0,0,1,.14-.36.67.67,0,0,1,.48-.14h.36v-.4H52.82v-.83l2.23-4.08Zm-.93,3.92v-2.46L54,152.15Z"/><path class="cls-3" d="M66.92,150.42v-.3H68a.68.68,0,0,1,.48.14.49.49,0,0,1,.14.36.48.48,0,0,1-.14.36.67.67,0,0,1-.48.14h-.16v3.64a2,2,0,0,1-.21.92,1.86,1.86,0,0,1-.63.68,1.71,1.71,0,0,1-1,.28H65a.68.68,0,0,1-.48-.14.53.53,0,0,1,0-.72.67.67,0,0,1,.48-.14h1a.87.87,0,0,0,.66-.25.88.88,0,0,0,.24-.63v-.49a2.48,2.48,0,0,1-.63.32,2.06,2.06,0,0,1-.66.11A2.09,2.09,0,0,1,64,154a2.54,2.54,0,0,1,0-3.37,2.18,2.18,0,0,1,2.26-.57A2.16,2.16,0,0,1,66.92,150.42Zm0,1.92a1.35,1.35,0,0,0-.38-1,1.23,1.23,0,0,0-1.82,0,1.4,1.4,0,0,0,0,1.92,1.23,1.23,0,0,0,1.82,0A1.35,1.35,0,0,0,66.91,152.34Z"/><path class="cls-3" d="M73.36,150.12v3.43a.59.59,0,0,1,.44.14.49.49,0,0,1,.14.36.48.48,0,0,1-.14.36.68.68,0,0,1-.48.14h-.89v-.23a4.33,4.33,0,0,1-.76.29,2.65,2.65,0,0,1-.69.1,1.43,1.43,0,0,1-1.33-.78,1.39,1.39,0,0,1-.14-.66v-2.15h-.16a.67.67,0,0,1-.48-.14.53.53,0,0,1,0-.72.68.68,0,0,1,.48-.14h1.09v3a.65.65,0,0,0,.14.47.58.58,0,0,0,.44.15,1.77,1.77,0,0,0,.61-.12,4.22,4.22,0,0,0,.8-.43v-2h-.34a.67.67,0,0,1-.48-.14.53.53,0,0,1,0-.72.68.68,0,0,1,.48-.14Z"/><path class="cls-3" d="M79.2,152.85H75.38a1.26,1.26,0,0,0,.52.63,1.83,1.83,0,0,0,1,.24,5.43,5.43,0,0,0,1.38-.24,2.21,2.21,0,0,1,.49-.1.4.4,0,0,1,.31.14.51.51,0,0,1,.13.36.45.45,0,0,1-.14.33,2.09,2.09,0,0,1-.89.34,6,6,0,0,1-1.35.16A2.4,2.4,0,0,1,75,154a2.28,2.28,0,0,1-.67-1.67,2.22,2.22,0,0,1,.72-1.72,2.4,2.4,0,0,1,1.67-.66,2.49,2.49,0,0,1,1,.21,2.22,2.22,0,0,1,.71.46,3,3,0,0,1,.54.89,2.35,2.35,0,0,1,.15.86Zm-1-1a1.58,1.58,0,0,0-2.2-.64,1.55,1.55,0,0,0-.56.64Z"/><path class="cls-3" d="M83.36,151.3a1.77,1.77,0,0,0-1-.3,1.66,1.66,0,0,0-.86.19c-.09.06-.14.12-.14.18s.06.15.19.22a2.42,2.42,0,0,0,.65.15,7.13,7.13,0,0,1,1.29.27,1.56,1.56,0,0,1,.74.54,1.26,1.26,0,0,1,.26.75,1.12,1.12,0,0,1-.44.9,2.48,2.48,0,0,1-1.64.52,3.51,3.51,0,0,1-.75-.08,2.62,2.62,0,0,1-.63-.22.53.53,0,0,1-.15.1.4.4,0,0,1-.16,0,.43.43,0,0,1-.35-.15.8.8,0,0,1-.13-.52v-.34a.8.8,0,0,1,.13-.51.42.42,0,0,1,.34-.15.41.41,0,0,1,.28.1.69.69,0,0,1,.18.34,1.42,1.42,0,0,0,.51.3,2.19,2.19,0,0,0,.69.1,1.92,1.92,0,0,0,1-.21c.11-.07.17-.15.17-.22a.37.37,0,0,0-.24-.32,3.34,3.34,0,0,0-1-.21,2.69,2.69,0,0,1-1.5-.49,1.16,1.16,0,0,1-.38-.88,1.12,1.12,0,0,1,.42-.89,2.23,2.23,0,0,1,1.5-.49,2.92,2.92,0,0,1,.62.07,2.5,2.5,0,0,1,.57.2l.16-.1a.34.34,0,0,1,.14,0,.4.4,0,0,1,.32.15.82.82,0,0,1,.13.51V151a.92.92,0,0,1-.07.44.45.45,0,0,1-.39.22.43.43,0,0,1-.29-.11A.52.52,0,0,1,83.36,151.3Z"/><path class="cls-3" d="M88.85,151.3a1.77,1.77,0,0,0-1-.3,1.66,1.66,0,0,0-.86.19c-.09.06-.14.12-.14.18s.06.15.19.22a2.42,2.42,0,0,0,.65.15A7.13,7.13,0,0,1,89,152a1.56,1.56,0,0,1,.74.54,1.26,1.26,0,0,1,.26.75,1.12,1.12,0,0,1-.44.9,2.48,2.48,0,0,1-1.64.52,3.51,3.51,0,0,1-.75-.08,2.62,2.62,0,0,1-.63-.22.53.53,0,0,1-.15.1.4.4,0,0,1-.16,0,.43.43,0,0,1-.35-.15.8.8,0,0,1-.13-.52v-.34a.8.8,0,0,1,.13-.51.42.42,0,0,1,.34-.15.41.41,0,0,1,.28.1.69.69,0,0,1,.18.34,1.42,1.42,0,0,0,.51.3,2.19,2.19,0,0,0,.69.1,1.92,1.92,0,0,0,1-.21c.11-.07.17-.15.17-.22a.37.37,0,0,0-.24-.32,3.34,3.34,0,0,0-1-.21,2.69,2.69,0,0,1-1.5-.49,1.16,1.16,0,0,1-.38-.88,1.12,1.12,0,0,1,.42-.89,2.23,2.23,0,0,1,1.5-.49,2.92,2.92,0,0,1,.62.07,2.5,2.5,0,0,1,.57.2l.16-.1a.34.34,0,0,1,.14,0,.4.4,0,0,1,.32.15.82.82,0,0,1,.13.51V151a.92.92,0,0,1-.07.44.45.45,0,0,1-.39.22.43.43,0,0,1-.29-.11A.52.52,0,0,1,88.85,151.3Z"/><path class="cls-3" d="M95.67,152.85H91.85a1.26,1.26,0,0,0,.52.63,1.83,1.83,0,0,0,1,.24,5.43,5.43,0,0,0,1.38-.24,2.21,2.21,0,0,1,.49-.1.4.4,0,0,1,.31.14.51.51,0,0,1,.13.36.45.45,0,0,1-.14.33,2.09,2.09,0,0,1-.89.34,6,6,0,0,1-1.35.16,2.4,2.4,0,0,1-1.79-.68,2.28,2.28,0,0,1-.67-1.67,2.22,2.22,0,0,1,.72-1.72,2.4,2.4,0,0,1,1.67-.66,2.49,2.49,0,0,1,1,.21,2.22,2.22,0,0,1,.71.46,3,3,0,0,1,.54.89,2.35,2.35,0,0,1,.15.86Zm-1-1a1.58,1.58,0,0,0-2.2-.64,1.55,1.55,0,0,0-.56.64Z"/><path class="cls-3" d="M99.82,151.3a1.77,1.77,0,0,0-1-.3,1.66,1.66,0,0,0-.86.19c-.09.06-.14.12-.14.18s.06.15.19.22a2.42,2.42,0,0,0,.65.15A7.13,7.13,0,0,1,100,152a1.56,1.56,0,0,1,.74.54,1.26,1.26,0,0,1,.26.75,1.12,1.12,0,0,1-.44.9,2.48,2.48,0,0,1-1.64.52,3.51,3.51,0,0,1-.75-.08,2.62,2.62,0,0,1-.63-.22.53.53,0,0,1-.15.1.4.4,0,0,1-.16,0,.43.43,0,0,1-.35-.15.8.8,0,0,1-.13-.52v-.34a.8.8,0,0,1,.13-.51.42.42,0,0,1,.34-.15.41.41,0,0,1,.28.1.69.69,0,0,1,.18.34,1.42,1.42,0,0,0,.51.3,2.19,2.19,0,0,0,.69.1,1.92,1.92,0,0,0,1-.21c.11-.07.17-.15.17-.22a.37.37,0,0,0-.24-.32,3.34,3.34,0,0,0-1-.21,2.69,2.69,0,0,1-1.5-.49,1.16,1.16,0,0,1-.38-.88,1.12,1.12,0,0,1,.42-.89,2.23,2.23,0,0,1,1.5-.49,2.92,2.92,0,0,1,.62.07,2.5,2.5,0,0,1,.57.2l.16-.1a.34.34,0,0,1,.14,0,.4.4,0,0,1,.32.15.82.82,0,0,1,.13.51V151a.92.92,0,0,1-.07.44.45.45,0,0,1-.39.22.43.43,0,0,1-.29-.11A.52.52,0,0,1,99.82,151.3Z"/></svg>