<svg id="图层_1" data-name="图层 1" xmlns="http://www.w3.org/2000/svg" viewBox="0 0 297.64 55.18"><defs><style>.cls-1{fill:#ccc;}</style></defs><title>一维猜方格</title><path d="M459.92,397.56v41.1h-41.1v-41.1h41.1m.71-.71H418.11v42.52h42.52V396.85Z" transform="translate(-418.11 -396.85)"/><path d="M502.44,397.56v41.1h-41.1v-41.1h41.1m.71-.71H460.63v42.52h42.52V396.85Z" transform="translate(-418.11 -396.85)"/><path d="M545,397.56v41.1h-41.1v-41.1H545m.71-.71H503.15v42.52h42.52V396.85Z" transform="translate(-418.11 -396.85)"/><rect class="cls-1" x="127.91" y="0.35" width="41.81" height="41.81"/><path d="M587.48,397.56v41.1h-41.1v-41.1h41.1m.71-.71H545.67v42.52h42.52V396.85Z" transform="translate(-418.11 -396.85)"/><rect class="cls-1" x="170.43" y="0.35" width="41.81" height="41.81"/><path d="M630,397.56v41.1H588.9v-41.1H630m.71-.71H588.19v42.52h42.52V396.85Z" transform="translate(-418.11 -396.85)"/><rect class="cls-1" x="212.95" y="0.35" width="41.81" height="41.81"/><path d="M672.52,397.56v41.1h-41.1v-41.1h41.1m.71-.71H630.71v42.52h42.52V396.85Z" transform="translate(-418.11 -396.85)"/><path d="M715,397.56v41.1h-41.1v-41.1H715m.71-.71H673.23v42.52h42.52V396.85Z" transform="translate(-418.11 -396.85)"/><path d="M436.33,446.79c0-3.33,1.11-5.17,3-5.17s3,1.84,3,5.17-1.11,5.23-3,5.23S436.33,450.13,436.33,446.79Zm5.26,0c0-3-.88-4.48-2.21-4.48s-2.23,1.45-2.23,4.48.88,4.52,2.23,4.52S441.59,449.83,441.59,446.79Z" transform="translate(-418.11 -396.85)"/><path d="M479.4,451.12h2.35V443h-1.83v-.55a5.59,5.59,0,0,0,2-.67h.67v9.31h2.15v.72H479.4Z" transform="translate(-418.11 -396.85)"/><path d="M521.26,451.33c3.23-3.27,4.89-5.12,4.89-6.86a2,2,0,0,0-2.11-2.15,3.08,3.08,0,0,0-2.3,1.29l-.52-.5a3.8,3.8,0,0,1,2.91-1.49,2.65,2.65,0,0,1,2.86,2.84c0,2-1.79,3.88-4.49,6.73.55,0,1.15-.09,1.69-.09h3.32v.74h-6.24Z" transform="translate(-418.11 -396.85)"/><path d="M563.59,450.61l.45-.55a3.53,3.53,0,0,0,2.72,1.25,2.11,2.11,0,0,0,2.3-2.11c0-1.35-1-2.25-3.43-2.25v-.69c2.27,0,3-1,3-2.11a1.76,1.76,0,0,0-1.94-1.81,3.13,3.13,0,0,0-2.25,1.09l-.48-.55a3.85,3.85,0,0,1,2.75-1.23c1.59,0,2.81.89,2.81,2.45a2.52,2.52,0,0,1-1.9,2.45v.06a2.67,2.67,0,0,1,2.25,2.61,2.86,2.86,0,0,1-3.13,2.83A4.09,4.09,0,0,1,563.59,450.61Z" transform="translate(-418.11 -396.85)"/><path d="M610.51,448.89h-4.58v-.5l4.56-6.59h.81v6.41h1.47v.68H611.3v2.95h-.79Zm0-4.2c0-.47,0-1.3.07-1.77h-.07c-.24.42-.52.84-.81,1.29l-2.82,4h3.63Z" transform="translate(-418.11 -396.85)"/><path d="M648.58,450.68l.47-.58a3.46,3.46,0,0,0,2.69,1.21,2.45,2.45,0,0,0,2.41-2.59,2.27,2.27,0,0,0-2.37-2.51,3.07,3.07,0,0,0-1.83.67l-.54-.34.35-4.72h4.72v.74h-4l-.3,3.46a3.18,3.18,0,0,1,1.73-.48,2.87,2.87,0,0,1,3.08,3.16,3.21,3.21,0,0,1-3.25,3.35A4.25,4.25,0,0,1,648.58,450.68Z" transform="translate(-418.11 -396.85)"/><path d="M691.51,447.26c0-4.15,1.76-5.64,3.71-5.64a2.82,2.82,0,0,1,2.18,1l-.48.54a2.16,2.16,0,0,0-1.7-.81c-1.54,0-2.85,1.22-2.89,4.78a3.34,3.34,0,0,1,2.48-1.35c1.74,0,2.81,1.08,2.81,3.1a3,3,0,0,1-2.79,3.15C692.82,452,691.51,450.35,691.51,447.26Zm3.33,4.07a2.2,2.2,0,0,0,2-2.45c0-1.42-.65-2.44-2.11-2.44a3.13,3.13,0,0,0-2.35,1.47C692.48,450,693.29,451.33,694.84,451.33Z" transform="translate(-418.11 -396.85)"/></svg>