<svg id="图层_1" data-name="图层 1" xmlns="http://www.w3.org/2000/svg" viewBox="0 0 477.72 367.48"><defs><style>.cls-1{opacity:0.5;}.cls-2{fill:#f15a24;}.cls-3{opacity:0.3;}.cls-4{opacity:0.4;}.cls-5{fill:lime;}</style></defs><title>二维猜方格</title><path d="M459.92,397.56v41.1h-41.1v-41.1h41.1m.71-.71H418.11v42.52h42.52V396.85Z" transform="translate(-407.5 -128.58)"/><path d="M502.44,397.56v41.1h-41.1v-41.1h41.1m.71-.71H460.63v42.52h42.52V396.85Z" transform="translate(-407.5 -128.58)"/><path d="M545,397.56v41.1h-41.1v-41.1H545m.71-.71H503.15v42.52h42.52V396.85Z" transform="translate(-407.5 -128.58)"/><path d="M587.48,397.56v41.1h-41.1v-41.1h41.1m.71-.71H545.67v42.52h42.52V396.85Z" transform="translate(-407.5 -128.58)"/><path d="M630,397.56v41.1H588.9v-41.1H630m.71-.71H588.19v42.52h42.52V396.85Z" transform="translate(-407.5 -128.58)"/><path d="M672.52,397.56v41.1h-41.1v-41.1h41.1m.71-.71H630.71v42.52h42.52V396.85Z" transform="translate(-407.5 -128.58)"/><path d="M715,397.56v41.1h-41.1v-41.1H715m.71-.71H673.23v42.52h42.52V396.85Z" transform="translate(-407.5 -128.58)"/><path d="M459.92,355v41.1h-41.1V355h41.1m.71-.71H418.11v42.52h42.52V354.33Z" transform="translate(-407.5 -128.58)"/><path d="M502.44,355v41.1h-41.1V355h41.1m.71-.71H460.63v42.52h42.52V354.33Z" transform="translate(-407.5 -128.58)"/><path d="M545,355v41.1h-41.1V355H545m.71-.71H503.15v42.52h42.52V354.33Z" transform="translate(-407.5 -128.58)"/><path d="M587.48,355v41.1h-41.1V355h41.1m.71-.71H545.67v42.52h42.52V354.33Z" transform="translate(-407.5 -128.58)"/><path d="M630,355v41.1H588.9V355H630m.71-.71H588.19v42.52h42.52V354.33Z" transform="translate(-407.5 -128.58)"/><path d="M672.52,355v41.1h-41.1V355h41.1m.71-.71H630.71v42.52h42.52V354.33Z" transform="translate(-407.5 -128.58)"/><path d="M715,355v41.1h-41.1V355H715m.71-.71H673.23v42.52h42.52V354.33Z" transform="translate(-407.5 -128.58)"/><path d="M459.92,312.52v41.1h-41.1v-41.1h41.1m.71-.71H418.11v42.52h42.52V311.81Z" transform="translate(-407.5 -128.58)"/><path d="M502.44,312.52v41.1h-41.1v-41.1h41.1m.71-.71H460.63v42.52h42.52V311.81Z" transform="translate(-407.5 -128.58)"/><path d="M545,312.52v41.1h-41.1v-41.1H545m.71-.71H503.15v42.52h42.52V311.81Z" transform="translate(-407.5 -128.58)"/><path d="M587.48,312.52v41.1h-41.1v-41.1h41.1m.71-.71H545.67v42.52h42.52V311.81Z" transform="translate(-407.5 -128.58)"/><path d="M630,312.52v41.1H588.9v-41.1H630m.71-.71H588.19v42.52h42.52V311.81Z" transform="translate(-407.5 -128.58)"/><path d="M672.52,312.52v41.1h-41.1v-41.1h41.1m.71-.71H630.71v42.52h42.52V311.81Z" transform="translate(-407.5 -128.58)"/><path d="M715,312.52v41.1h-41.1v-41.1H715m.71-.71H673.23v42.52h42.52V311.81Z" transform="translate(-407.5 -128.58)"/><path d="M459.92,270v41.1h-41.1V270h41.1m.71-.71H418.11v42.52h42.52V269.29Z" transform="translate(-407.5 -128.58)"/><path d="M502.44,270v41.1h-41.1V270h41.1m.71-.71H460.63v42.52h42.52V269.29Z" transform="translate(-407.5 -128.58)"/><path d="M545,270v41.1h-41.1V270H545m.71-.71H503.15v42.52h42.52V269.29Z" transform="translate(-407.5 -128.58)"/><path d="M587.48,270v41.1h-41.1V270h41.1m.71-.71H545.67v42.52h42.52V269.29Z" transform="translate(-407.5 -128.58)"/><path d="M630,270v41.1H588.9V270H630m.71-.71H588.19v42.52h42.52V269.29Z" transform="translate(-407.5 -128.58)"/><path d="M672.52,270v41.1h-41.1V270h41.1m.71-.71H630.71v42.52h42.52V269.29Z" transform="translate(-407.5 -128.58)"/><path d="M715,270v41.1h-41.1V270H715m.71-.71H673.23v42.52h42.52V269.29Z" transform="translate(-407.5 -128.58)"/><path d="M459.92,227.48v41.1h-41.1v-41.1h41.1m.71-.71H418.11v42.52h42.52V226.77Z" transform="translate(-407.5 -128.58)"/><path d="M502.44,227.48v41.1h-41.1v-41.1h41.1m.71-.71H460.63v42.52h42.52V226.77Z" transform="translate(-407.5 -128.58)"/><path d="M545,227.48v41.1h-41.1v-41.1H545m.71-.71H503.15v42.52h42.52V226.77Z" transform="translate(-407.5 -128.58)"/><path d="M587.48,227.48v41.1h-41.1v-41.1h41.1m.71-.71H545.67v42.52h42.52V226.77Z" transform="translate(-407.5 -128.58)"/><path d="M630,227.48v41.1H588.9v-41.1H630m.71-.71H588.19v42.52h42.52V226.77Z" transform="translate(-407.5 -128.58)"/><path d="M672.52,227.48v41.1h-41.1v-41.1h41.1m.71-.71H630.71v42.52h42.52V226.77Z" transform="translate(-407.5 -128.58)"/><path d="M715,227.48v41.1h-41.1v-41.1H715m.71-.71H673.23v42.52h42.52V226.77Z" transform="translate(-407.5 -128.58)"/><path d="M459.92,185v41.1h-41.1V185h41.1m.71-.71H418.11v42.52h42.52V184.25Z" transform="translate(-407.5 -128.58)"/><path d="M502.44,185v41.1h-41.1V185h41.1m.71-.71H460.63v42.52h42.52V184.25Z" transform="translate(-407.5 -128.58)"/><path d="M545,185v41.1h-41.1V185H545m.71-.71H503.15v42.52h42.52V184.25Z" transform="translate(-407.5 -128.58)"/><path d="M587.48,185v41.1h-41.1V185h41.1m.71-.71H545.67v42.52h42.52V184.25Z" transform="translate(-407.5 -128.58)"/><path d="M630,185v41.1H588.9V185H630m.71-.71H588.19v42.52h42.52V184.25Z" transform="translate(-407.5 -128.58)"/><path d="M672.52,185v41.1h-41.1V185h41.1m.71-.71H630.71v42.52h42.52V184.25Z" transform="translate(-407.5 -128.58)"/><path d="M715,185v41.1h-41.1V185H715m.71-.71H673.23v42.52h42.52V184.25Z" transform="translate(-407.5 -128.58)"/><path d="M459.92,142.44v41.1h-41.1v-41.1h41.1m.71-.71H418.11v42.52h42.52V141.73Z" transform="translate(-407.5 -128.58)"/><path d="M502.44,142.44v41.1h-41.1v-41.1h41.1m.71-.71H460.63v42.52h42.52V141.73Z" transform="translate(-407.5 -128.58)"/><path d="M545,142.44v41.1h-41.1v-41.1H545m.71-.71H503.15v42.52h42.52V141.73Z" transform="translate(-407.5 -128.58)"/><path d="M587.48,142.44v41.1h-41.1v-41.1h41.1m.71-.71H545.67v42.52h42.52V141.73Z" transform="translate(-407.5 -128.58)"/><path d="M630,142.44v41.1H588.9v-41.1H630m.71-.71H588.19v42.52h42.52V141.73Z" transform="translate(-407.5 -128.58)"/><path d="M672.52,142.44v41.1h-41.1v-41.1h41.1m.71-.71H630.71v42.52h42.52V141.73Z" transform="translate(-407.5 -128.58)"/><path d="M715,142.44v41.1h-41.1v-41.1H715m.71-.71H673.23v42.52h42.52V141.73Z" transform="translate(-407.5 -128.58)"/><g class="cls-1"><rect class="cls-2" x="10.96" y="183.59" width="41.81" height="41.81"/><path d="M459.92,312.52v41.1h-41.1v-41.1h41.1m.71-.71H418.11v42.52h42.52V311.81Z" transform="translate(-407.5 -128.58)"/><rect class="cls-2" x="53.48" y="183.59" width="41.81" height="41.81"/><path d="M502.44,312.52v41.1h-41.1v-41.1h41.1m.71-.71H460.63v42.52h42.52V311.81Z" transform="translate(-407.5 -128.58)"/><rect class="cls-2" x="96" y="183.59" width="41.81" height="41.81"/><path d="M545,312.52v41.1h-41.1v-41.1H545m.71-.71H503.15v42.52h42.52V311.81Z" transform="translate(-407.5 -128.58)"/><rect class="cls-2" x="138.52" y="183.59" width="41.81" height="41.81"/><path d="M587.48,312.52v41.1h-41.1v-41.1h41.1m.71-.71H545.67v42.52h42.52V311.81Z" transform="translate(-407.5 -128.58)"/><rect class="cls-2" x="181.04" y="183.59" width="41.81" height="41.81"/><path d="M630,312.52v41.1H588.9v-41.1H630m.71-.71H588.19v42.52h42.52V311.81Z" transform="translate(-407.5 -128.58)"/><rect class="cls-2" x="223.56" y="183.59" width="41.81" height="41.81"/><path d="M672.52,312.52v41.1h-41.1v-41.1h41.1m.71-.71H630.71v42.52h42.52V311.81Z" transform="translate(-407.5 -128.58)"/><rect class="cls-2" x="266.08" y="183.59" width="41.81" height="41.81"/><path d="M715,312.52v41.1h-41.1v-41.1H715m.71-.71H673.23v42.52h42.52V311.81Z" transform="translate(-407.5 -128.58)"/><rect class="cls-2" x="10.96" y="141.07" width="41.81" height="41.81"/><path d="M459.92,270v41.1h-41.1V270h41.1m.71-.71H418.11v42.52h42.52V269.29Z" transform="translate(-407.5 -128.58)"/><rect class="cls-2" x="53.48" y="141.07" width="41.81" height="41.81"/><path d="M502.44,270v41.1h-41.1V270h41.1m.71-.71H460.63v42.52h42.52V269.29Z" transform="translate(-407.5 -128.58)"/><rect class="cls-2" x="96" y="141.07" width="41.81" height="41.81"/><path d="M545,270v41.1h-41.1V270H545m.71-.71H503.15v42.52h42.52V269.29Z" transform="translate(-407.5 -128.58)"/><rect class="cls-2" x="138.52" y="141.07" width="41.81" height="41.81"/><path d="M587.48,270v41.1h-41.1V270h41.1m.71-.71H545.67v42.52h42.52V269.29Z" transform="translate(-407.5 -128.58)"/><rect class="cls-2" x="181.04" y="141.07" width="41.81" height="41.81"/><path d="M630,270v41.1H588.9V270H630m.71-.71H588.19v42.52h42.52V269.29Z" transform="translate(-407.5 -128.58)"/><rect class="cls-2" x="223.56" y="141.07" width="41.81" height="41.81"/><path d="M672.52,270v41.1h-41.1V270h41.1m.71-.71H630.71v42.52h42.52V269.29Z" transform="translate(-407.5 -128.58)"/><rect class="cls-2" x="266.08" y="141.07" width="41.81" height="41.81"/><path d="M715,270v41.1h-41.1V270H715m.71-.71H673.23v42.52h42.52V269.29Z" transform="translate(-407.5 -128.58)"/><rect class="cls-2" x="10.96" y="98.55" width="41.81" height="41.81"/><path d="M459.92,227.48v41.1h-41.1v-41.1h41.1m.71-.71H418.11v42.52h42.52V226.77Z" transform="translate(-407.5 -128.58)"/><rect class="cls-2" x="53.48" y="98.55" width="41.81" height="41.81"/><path d="M502.44,227.48v41.1h-41.1v-41.1h41.1m.71-.71H460.63v42.52h42.52V226.77Z" transform="translate(-407.5 -128.58)"/><rect class="cls-2" x="96" y="98.55" width="41.81" height="41.81"/><path d="M545,227.48v41.1h-41.1v-41.1H545m.71-.71H503.15v42.52h42.52V226.77Z" transform="translate(-407.5 -128.58)"/><rect class="cls-2" x="138.52" y="98.55" width="41.81" height="41.81"/><path d="M587.48,227.48v41.1h-41.1v-41.1h41.1m.71-.71H545.67v42.52h42.52V226.77Z" transform="translate(-407.5 -128.58)"/><rect class="cls-2" x="181.04" y="98.55" width="41.81" height="41.81"/><path d="M630,227.48v41.1H588.9v-41.1H630m.71-.71H588.19v42.52h42.52V226.77Z" transform="translate(-407.5 -128.58)"/><rect class="cls-2" x="223.56" y="98.55" width="41.81" height="41.81"/><path d="M672.52,227.48v41.1h-41.1v-41.1h41.1m.71-.71H630.71v42.52h42.52V226.77Z" transform="translate(-407.5 -128.58)"/><rect class="cls-2" x="266.08" y="98.55" width="41.81" height="41.81"/><path d="M715,227.48v41.1h-41.1v-41.1H715m.71-.71H673.23v42.52h42.52V226.77Z" transform="translate(-407.5 -128.58)"/><rect class="cls-2" x="10.96" y="56.03" width="41.81" height="41.81"/><path d="M459.92,185v41.1h-41.1V185h41.1m.71-.71H418.11v42.52h42.52V184.25Z" transform="translate(-407.5 -128.58)"/><rect class="cls-2" x="53.48" y="56.03" width="41.81" height="41.81"/><path d="M502.44,185v41.1h-41.1V185h41.1m.71-.71H460.63v42.52h42.52V184.25Z" transform="translate(-407.5 -128.58)"/><rect class="cls-2" x="96" y="56.03" width="41.81" height="41.81"/><path d="M545,185v41.1h-41.1V185H545m.71-.71H503.15v42.52h42.52V184.25Z" transform="translate(-407.5 -128.58)"/><rect class="cls-2" x="138.52" y="56.03" width="41.81" height="41.81"/><path d="M587.48,185v41.1h-41.1V185h41.1m.71-.71H545.67v42.52h42.52V184.25Z" transform="translate(-407.5 -128.58)"/><rect class="cls-2" x="181.04" y="56.03" width="41.81" height="41.81"/><path d="M630,185v41.1H588.9V185H630m.71-.71H588.19v42.52h42.52V184.25Z" transform="translate(-407.5 -128.58)"/><rect class="cls-2" x="223.56" y="56.03" width="41.81" height="41.81"/><path d="M672.52,185v41.1h-41.1V185h41.1m.71-.71H630.71v42.52h42.52V184.25Z" transform="translate(-407.5 -128.58)"/><rect class="cls-2" x="266.08" y="56.03" width="41.81" height="41.81"/><path d="M715,185v41.1h-41.1V185H715m.71-.71H673.23v42.52h42.52V184.25Z" transform="translate(-407.5 -128.58)"/><rect class="cls-2" x="10.96" y="13.51" width="41.81" height="41.81"/><path d="M459.92,142.44v41.1h-41.1v-41.1h41.1m.71-.71H418.11v42.52h42.52V141.73Z" transform="translate(-407.5 -128.58)"/><rect class="cls-2" x="53.48" y="13.51" width="41.81" height="41.81"/><path d="M502.44,142.44v41.1h-41.1v-41.1h41.1m.71-.71H460.63v42.52h42.52V141.73Z" transform="translate(-407.5 -128.58)"/><rect class="cls-2" x="96" y="13.51" width="41.81" height="41.81"/><path d="M545,142.44v41.1h-41.1v-41.1H545m.71-.71H503.15v42.52h42.52V141.73Z" transform="translate(-407.5 -128.58)"/><rect class="cls-2" x="138.52" y="13.51" width="41.81" height="41.81"/><path d="M587.48,142.44v41.1h-41.1v-41.1h41.1m.71-.71H545.67v42.52h42.52V141.73Z" transform="translate(-407.5 -128.58)"/><rect class="cls-2" x="181.04" y="13.51" width="41.81" height="41.81"/><path d="M630,142.44v41.1H588.9v-41.1H630m.71-.71H588.19v42.52h42.52V141.73Z" transform="translate(-407.5 -128.58)"/><rect class="cls-2" x="223.56" y="13.51" width="41.81" height="41.81"/><path d="M672.52,142.44v41.1h-41.1v-41.1h41.1m.71-.71H630.71v42.52h42.52V141.73Z" transform="translate(-407.5 -128.58)"/><rect class="cls-2" x="266.08" y="13.51" width="41.81" height="41.81"/><path d="M715,142.44v41.1h-41.1v-41.1H715m.71-.71H673.23v42.52h42.52V141.73Z" transform="translate(-407.5 -128.58)"/></g><g class="cls-3"><rect x="10.96" y="268.63" width="41.81" height="41.81"/><path d="M459.92,397.56v41.1h-41.1v-41.1h41.1m.71-.71H418.11v42.52h42.52V396.85Z" transform="translate(-407.5 -128.58)"/><rect x="53.48" y="268.63" width="41.81" height="41.81"/><path d="M502.44,397.56v41.1h-41.1v-41.1h41.1m.71-.71H460.63v42.52h42.52V396.85Z" transform="translate(-407.5 -128.58)"/><rect x="96" y="268.63" width="41.81" height="41.81"/><path d="M545,397.56v41.1h-41.1v-41.1H545m.71-.71H503.15v42.52h42.52V396.85Z" transform="translate(-407.5 -128.58)"/><rect x="138.52" y="268.63" width="41.81" height="41.81"/><path d="M587.48,397.56v41.1h-41.1v-41.1h41.1m.71-.71H545.67v42.52h42.52V396.85Z" transform="translate(-407.5 -128.58)"/><rect x="181.04" y="268.63" width="41.81" height="41.81"/><path d="M630,397.56v41.1H588.9v-41.1H630m.71-.71H588.19v42.52h42.52V396.85Z" transform="translate(-407.5 -128.58)"/><rect x="10.96" y="226.11" width="41.81" height="41.81"/><path d="M459.92,355v41.1h-41.1V355h41.1m.71-.71H418.11v42.52h42.52V354.33Z" transform="translate(-407.5 -128.58)"/><rect x="53.48" y="226.11" width="41.81" height="41.81"/><path d="M502.44,355v41.1h-41.1V355h41.1m.71-.71H460.63v42.52h42.52V354.33Z" transform="translate(-407.5 -128.58)"/><rect x="96" y="226.11" width="41.81" height="41.81"/><path d="M545,355v41.1h-41.1V355H545m.71-.71H503.15v42.52h42.52V354.33Z" transform="translate(-407.5 -128.58)"/><rect x="138.52" y="226.11" width="41.81" height="41.81"/><path d="M587.48,355v41.1h-41.1V355h41.1m.71-.71H545.67v42.52h42.52V354.33Z" transform="translate(-407.5 -128.58)"/><rect x="181.04" y="226.11" width="41.81" height="41.81"/><path d="M630,355v41.1H588.9V355H630m.71-.71H588.19v42.52h42.52V354.33Z" transform="translate(-407.5 -128.58)"/><rect x="10.96" y="183.59" width="41.81" height="41.81"/><path d="M459.92,312.52v41.1h-41.1v-41.1h41.1m.71-.71H418.11v42.52h42.52V311.81Z" transform="translate(-407.5 -128.58)"/><rect x="53.48" y="183.59" width="41.81" height="41.81"/><path d="M502.44,312.52v41.1h-41.1v-41.1h41.1m.71-.71H460.63v42.52h42.52V311.81Z" transform="translate(-407.5 -128.58)"/><rect x="96" y="183.59" width="41.81" height="41.81"/><path d="M545,312.52v41.1h-41.1v-41.1H545m.71-.71H503.15v42.52h42.52V311.81Z" transform="translate(-407.5 -128.58)"/><rect x="138.52" y="183.59" width="41.81" height="41.81"/><path d="M587.48,312.52v41.1h-41.1v-41.1h41.1m.71-.71H545.67v42.52h42.52V311.81Z" transform="translate(-407.5 -128.58)"/><rect x="181.04" y="183.59" width="41.81" height="41.81"/><path d="M630,312.52v41.1H588.9v-41.1H630m.71-.71H588.19v42.52h42.52V311.81Z" transform="translate(-407.5 -128.58)"/><rect x="10.96" y="141.07" width="41.81" height="41.81"/><path d="M459.92,270v41.1h-41.1V270h41.1m.71-.71H418.11v42.52h42.52V269.29Z" transform="translate(-407.5 -128.58)"/><rect x="53.48" y="141.07" width="41.81" height="41.81"/><path d="M502.44,270v41.1h-41.1V270h41.1m.71-.71H460.63v42.52h42.52V269.29Z" transform="translate(-407.5 -128.58)"/><rect x="96" y="141.07" width="41.81" height="41.81"/><path d="M545,270v41.1h-41.1V270H545m.71-.71H503.15v42.52h42.52V269.29Z" transform="translate(-407.5 -128.58)"/><rect x="138.52" y="141.07" width="41.81" height="41.81"/><path d="M587.48,270v41.1h-41.1V270h41.1m.71-.71H545.67v42.52h42.52V269.29Z" transform="translate(-407.5 -128.58)"/><rect x="181.04" y="141.07" width="41.81" height="41.81"/><path d="M630,270v41.1H588.9V270H630m.71-.71H588.19v42.52h42.52V269.29Z" transform="translate(-407.5 -128.58)"/><rect x="10.96" y="98.55" width="41.81" height="41.81"/><path d="M459.92,227.48v41.1h-41.1v-41.1h41.1m.71-.71H418.11v42.52h42.52V226.77Z" transform="translate(-407.5 -128.58)"/><rect x="53.48" y="98.55" width="41.81" height="41.81"/><path d="M502.44,227.48v41.1h-41.1v-41.1h41.1m.71-.71H460.63v42.52h42.52V226.77Z" transform="translate(-407.5 -128.58)"/><rect x="96" y="98.55" width="41.81" height="41.81"/><path d="M545,227.48v41.1h-41.1v-41.1H545m.71-.71H503.15v42.52h42.52V226.77Z" transform="translate(-407.5 -128.58)"/><rect x="138.52" y="98.55" width="41.81" height="41.81"/><path d="M587.48,227.48v41.1h-41.1v-41.1h41.1m.71-.71H545.67v42.52h42.52V226.77Z" transform="translate(-407.5 -128.58)"/><rect x="181.04" y="98.55" width="41.81" height="41.81"/><path d="M630,227.48v41.1H588.9v-41.1H630m.71-.71H588.19v42.52h42.52V226.77Z" transform="translate(-407.5 -128.58)"/><rect x="10.96" y="56.03" width="41.81" height="41.81"/><path d="M459.92,185v41.1h-41.1V185h41.1m.71-.71H418.11v42.52h42.52V184.25Z" transform="translate(-407.5 -128.58)"/><rect x="53.48" y="56.03" width="41.81" height="41.81"/><path d="M502.44,185v41.1h-41.1V185h41.1m.71-.71H460.63v42.52h42.52V184.25Z" transform="translate(-407.5 -128.58)"/><rect x="96" y="56.03" width="41.81" height="41.81"/><path d="M545,185v41.1h-41.1V185H545m.71-.71H503.15v42.52h42.52V184.25Z" transform="translate(-407.5 -128.58)"/><rect x="138.52" y="56.03" width="41.81" height="41.81"/><path d="M587.48,185v41.1h-41.1V185h41.1m.71-.71H545.67v42.52h42.52V184.25Z" transform="translate(-407.5 -128.58)"/><rect x="181.04" y="56.03" width="41.81" height="41.81"/><path d="M630,185v41.1H588.9V185H630m.71-.71H588.19v42.52h42.52V184.25Z" transform="translate(-407.5 -128.58)"/><rect x="10.96" y="13.51" width="41.81" height="41.81"/><path d="M459.92,142.44v41.1h-41.1v-41.1h41.1m.71-.71H418.11v42.52h42.52V141.73Z" transform="translate(-407.5 -128.58)"/><rect x="53.48" y="13.51" width="41.81" height="41.81"/><path d="M502.44,142.44v41.1h-41.1v-41.1h41.1m.71-.71H460.63v42.52h42.52V141.73Z" transform="translate(-407.5 -128.58)"/><rect x="96" y="13.51" width="41.81" height="41.81"/><path d="M545,142.44v41.1h-41.1v-41.1H545m.71-.71H503.15v42.52h42.52V141.73Z" transform="translate(-407.5 -128.58)"/><rect x="138.52" y="13.51" width="41.81" height="41.81"/><path d="M587.48,142.44v41.1h-41.1v-41.1h41.1m.71-.71H545.67v42.52h42.52V141.73Z" transform="translate(-407.5 -128.58)"/><rect x="181.04" y="13.51" width="41.81" height="41.81"/><path d="M630,142.44v41.1H588.9v-41.1H630m.71-.71H588.19v42.52h42.52V141.73Z" transform="translate(-407.5 -128.58)"/></g><path d="M436.39,138.12c0-1.66,1.49-2.47,4.81-2.83,0-1.12-.28-2.28-1.72-2.28a4.23,4.23,0,0,0-2.38.86l-.35-.61a5.25,5.25,0,0,1,2.83-1c1.81,0,2.45,1.29,2.45,3V140h-.68l-.08-1h-.06a4.25,4.25,0,0,1-2.62,1.15A2,2,0,0,1,436.39,138.12Zm4.81.23v-2.45c-3,.33-4,1-4,2.18s.69,1.43,1.54,1.43A3.71,3.71,0,0,0,441.19,138.34Z" transform="translate(-407.5 -128.58)"/><path d="M408,163.33c0-3.33,1.11-5.17,3-5.17s3,1.84,3,5.17-1.11,5.23-3,5.23S408,166.66,408,163.33Zm5.26,0c0-3-.88-4.48-2.21-4.48s-2.23,1.45-2.23,4.48.88,4.52,2.23,4.52S413.24,166.36,413.24,163.33Z" transform="translate(-407.5 -128.58)"/><path d="M408.54,210.17h2.35v-8.09h-1.83v-.55a5.59,5.59,0,0,0,2-.67h.67v9.31h2.15v.72h-5.33Z" transform="translate(-407.5 -128.58)"/><path d="M407.87,252.91c3.23-3.27,4.89-5.12,4.89-6.86a2,2,0,0,0-2.11-2.15,3.08,3.08,0,0,0-2.3,1.29l-.52-.5a3.8,3.8,0,0,1,2.91-1.49A2.65,2.65,0,0,1,413.6,246c0,2-1.79,3.88-4.49,6.73.55,0,1.15-.09,1.69-.09h3.32v.74h-6.24Z" transform="translate(-407.5 -128.58)"/><path d="M407.69,294.7l.45-.55a3.53,3.53,0,0,0,2.72,1.25,2.11,2.11,0,0,0,2.3-2.11c0-1.35-1-2.25-3.43-2.25v-.69c2.27,0,3-.95,3-2.11a1.76,1.76,0,0,0-1.94-1.81,3.13,3.13,0,0,0-2.25,1.09l-.48-.55a3.85,3.85,0,0,1,2.75-1.23c1.59,0,2.81.89,2.81,2.45a2.51,2.51,0,0,1-1.9,2.45v.06a2.67,2.67,0,0,1,2.25,2.61,2.86,2.86,0,0,1-3.13,2.83A4.09,4.09,0,0,1,407.69,294.7Z" transform="translate(-407.5 -128.58)"/><path d="M412.08,335.51H407.5V335l4.56-6.59h.81v6.41h1.47v.68h-1.47v2.95h-.79Zm0-4.2c0-.47,0-1.3.07-1.77h-.07c-.24.43-.52.84-.81,1.29l-2.82,4h3.63Z" transform="translate(-407.5 -128.58)"/><path d="M407.63,379.81l.47-.58a3.46,3.46,0,0,0,2.69,1.21,2.45,2.45,0,0,0,2.41-2.59,2.27,2.27,0,0,0-2.37-2.51A3.07,3.07,0,0,0,409,376l-.54-.34.35-4.72h4.72v.74h-4l-.3,3.46a3.18,3.18,0,0,1,1.73-.48,2.87,2.87,0,0,1,3.08,3.16,3.21,3.21,0,0,1-3.25,3.35A4.26,4.26,0,0,1,407.63,379.81Z" transform="translate(-407.5 -128.58)"/><path d="M408,418.92c0-4.15,1.76-5.64,3.71-5.64a2.82,2.82,0,0,1,2.18,1l-.48.54a2.16,2.16,0,0,0-1.7-.81c-1.54,0-2.85,1.22-2.89,4.78a3.34,3.34,0,0,1,2.48-1.35c1.74,0,2.81,1.08,2.81,3.1a3,3,0,0,1-2.79,3.15C409.36,423.68,408,422,408,418.92Zm3.33,4.07a2.2,2.2,0,0,0,2-2.45c0-1.42-.65-2.44-2.11-2.44a3.13,3.13,0,0,0-2.35,1.47C409,421.67,409.83,423,411.37,423Z" transform="translate(-407.5 -128.58)"/><path d="M479.84,139.26h0l-.1.77H479V128.76h.82V132l0,1.46a4.18,4.18,0,0,1,2.55-1.16c2,0,3,1.52,3,3.86,0,2.58-1.56,4.08-3.33,4.08A3.66,3.66,0,0,1,479.84,139.26Zm4.68-3.12c0-1.83-.64-3.15-2.31-3.15a3.77,3.77,0,0,0-2.35,1.19v4.38a3.41,3.41,0,0,0,2.15.92C483.46,139.49,484.52,138.16,484.52,136.15Z" transform="translate(-407.5 -128.58)"/><path d="M521.67,136.26c0-2.52,1.63-4,3.5-4a3.17,3.17,0,0,1,2.21.92l-.47.57a2.47,2.47,0,0,0-1.71-.77c-1.52,0-2.67,1.32-2.67,3.26s1.06,3.23,2.65,3.23a2.94,2.94,0,0,0,2-.84l.41.58a3.73,3.73,0,0,1-2.44,1C523.16,140.21,521.67,138.77,521.67,136.26Z" transform="translate(-407.5 -128.58)"/><path d="M563.44,136.26c0-2.44,1.56-4,3.35-4a3.33,3.33,0,0,1,2.24.92l0-1.37v-3.06h.84V140h-.7l-.08-1h0a3.49,3.49,0,0,1-2.44,1.15C564.67,140.21,563.44,138.81,563.44,136.26Zm5.54,2v-4.37a3,3,0,0,0-2.13-.94c-1.43,0-2.54,1.4-2.54,3.26s.86,3.23,2.4,3.23A3.16,3.16,0,0,0,569,138.3Z" transform="translate(-407.5 -128.58)"/><path d="M606.43,136.26c0-2.47,1.62-4,3.32-4s2.92,1.3,2.92,3.52a4.41,4.41,0,0,1,0,.61h-5.36c0,1.83,1.13,3.12,2.76,3.12a3.34,3.34,0,0,0,2-.65l.33.61a4.22,4.22,0,0,1-2.4.74C608,140.21,606.43,138.74,606.43,136.26Zm5.47-.52c0-1.83-.82-2.75-2.15-2.75s-2.33,1-2.48,2.75Z" transform="translate(-407.5 -128.58)"/><path d="M650.35,132.55l1-.09v-1.57c0-1.49.67-2.31,1.94-2.31a3.13,3.13,0,0,1,1.13.24l-.2.68a1.94,1.94,0,0,0-.89-.23c-.81,0-1.16.6-1.16,1.67v1.52h1.71v.71h-1.71V140h-.82v-6.86h-1Z" transform="translate(-407.5 -128.58)"/><path d="M691.43,141.56a2.28,2.28,0,0,1,1.13-1.8v-.07a1.33,1.33,0,0,1-.68-1.22,1.75,1.75,0,0,1,.84-1.39V137a2.78,2.78,0,0,1-1-2.07,2.63,2.63,0,0,1,2.69-2.68,3.08,3.08,0,0,1,1,.18H698v.69h-1.7a2.41,2.41,0,0,1,.78,1.81,2.6,2.6,0,0,1-2.68,2.67,2.54,2.54,0,0,1-1.2-.31,1.34,1.34,0,0,0-.6,1c0,.54.31.95,1.42.95h1.6c1.7,0,2.51.54,2.51,1.74s-1.42,2.57-3.63,2.57C692.65,143.63,691.43,142.84,691.43,141.56Zm5.91-.38c0-.82-.6-1.12-1.7-1.12h-1.56a4.35,4.35,0,0,1-1-.13,1.9,1.9,0,0,0-.92,1.53c0,.92.88,1.53,2.41,1.53S697.34,142.09,697.34,141.18Zm-1-6.22a1.88,1.88,0,0,0-1.89-2,1.85,1.85,0,0,0-1.86,2,1.88,1.88,0,1,0,3.74,0Z" transform="translate(-407.5 -128.58)"/><path d="M465.79,465l.13,0,.44.18a11.59,11.59,0,0,1-4.48,7.54,2.24,2.24,0,0,0-.55-.54,10.16,10.16,0,0,0,4.2-6.46h-3.77V465Zm7.17-.52a30.78,30.78,0,0,1-3.15,3.33,12.89,12.89,0,0,0,4.56,4.17,4.15,4.15,0,0,0-.51.6,15.11,15.11,0,0,1-5.78-6.51v7c0,.55-.16.79-.51.92a7.21,7.21,0,0,1-2,.14,3.08,3.08,0,0,0-.27-.74c.84,0,1.56,0,1.77,0s.3-.07.3-.31V461.32h.72v3.39a16.52,16.52,0,0,0,1.4,2.61,26.38,26.38,0,0,0,2.85-3.26Z" transform="translate(-407.5 -128.58)"/><path d="M482.52,468.29V463h-5.17v-.68h11.07V463h-5.2v5.34h6V469h-6v5.17h-.69V469h-5.91v-.68Zm-3.5-4.52a17,17,0,0,1,1.47,3.39l-.64.25a19.53,19.53,0,0,0-1.45-3.46Zm8.43.14a31.24,31.24,0,0,1-1.87,3.59l-.58-.21a21.59,21.59,0,0,0,1.73-3.6Z" transform="translate(-407.5 -128.58)"/><path d="M492.07,466.69c.24,0,.57-.38.86-.81a19.15,19.15,0,0,0,1.79-3h-2.91v-.64H495l.23-.13.48.3a31.47,31.47,0,0,1-2.38,3.93h2.14l.13,0,.41.13a14.48,14.48,0,0,1-1.42,4.92c1.47,1.43,3.57,1.76,6.08,1.76.44,0,3.35,0,3.94,0a2,2,0,0,0-.3.67h-3.66c-2.68,0-4.83-.35-6.39-1.83a7.46,7.46,0,0,1-2.21,2.3,2.18,2.18,0,0,0-.52-.5,6.77,6.77,0,0,0,2.25-2.31,8.41,8.41,0,0,1-1.49-2.92l.55-.24a7.48,7.48,0,0,0,1.26,2.57,12.77,12.77,0,0,0,1.15-3.86h-2.51c-.16.07-.4.2-.4.31A2.89,2.89,0,0,0,492.07,466.69Zm5.85-1.42v5.49h2.4v-7.92c-1.13.21-2.31.38-3.42.51a2.31,2.31,0,0,0-.21-.57,32.16,32.16,0,0,0,6.83-1.42l.58.52a20,20,0,0,1-3.12.82v3.34h3.3v.64H501v4.07h3.42v.65h-7.12v-6.14Z" transform="translate(-407.5 -128.58)"/><path d="M510.81,461.52a21.94,21.94,0,0,1-1.53,3.12v9.48h-.65v-8.46a17,17,0,0,1-1.73,2.14,4.1,4.1,0,0,0-.43-.62,16.73,16.73,0,0,0,3.69-5.85Zm3.91,2v-2.17h.67v2.17h4v7.36h-.67v-.67h-3.36v3.94h-.67v-3.94h-3.25V471h-.65v-7.44Zm-3.25.64v2.37h3.25v-2.37Zm0,3v2.41h3.25v-2.41Zm3.91-.64h3.36v-2.37h-3.36Zm0,3h3.36v-2.41h-3.36Z" transform="translate(-407.5 -128.58)"/><path d="M526.83,462.51v9h-3.5v1.15h-.67V462.51Zm-.65.64h-2.85v3.47h2.85Zm-2.85,4.1v3.63h2.85v-3.63Zm9.72-5.91v2.91h1.89v.68h-1.89v8c0,.62-.21.87-.64,1a16.3,16.3,0,0,1-2.72.11,3.91,3.91,0,0,0-.25-.71c1.18,0,2.2,0,2.51,0s.41-.1.41-.4v-8h-4.82v-.68h4.82v-2.91Zm-4.27,4.86c.81,1.13,1.8,2.65,2.28,3.53l-.6.34a39,39,0,0,0-2.25-3.59Z" transform="translate(-407.5 -128.58)"/><path d="M537.34,473.84a2.6,2.6,0,0,0,1.76-2.33,1.08,1.08,0,0,1-.3,0,.79.79,0,0,1-.88-.87.82.82,0,0,1,.88-.86c.67,0,1,.57,1,1.45a3.26,3.26,0,0,1-2.24,3.09Z" transform="translate(-407.5 -128.58)"/><path d="M548.43,461.38a8.88,8.88,0,0,1-.52,1.19h3.9v.58h-2.52a8.45,8.45,0,0,1,.6,1.54l-.62.2a9.79,9.79,0,0,0-.67-1.74h-1a9.29,9.29,0,0,1-1.6,2,4.06,4.06,0,0,0-.58-.37,8.37,8.37,0,0,0,2.37-3.56Zm2.93,6.15v-1.6h-4.79v-.62H557v2.83h-4.92v1.62h5.27s0,.21,0,.33c-.23,2-.43,2.88-.79,3.2a1.1,1.1,0,0,1-.81.27c-.33,0-1,0-1.76,0a2,2,0,0,0-.2-.65,15.67,15.67,0,0,0,1.72.08c.25,0,.41,0,.51-.11s.43-.88.61-2.47h-4.52v3.79h-.69v-3.64a12.79,12.79,0,0,1-5.07,3.7,2.12,2.12,0,0,0-.47-.54,12.37,12.37,0,0,0,4.9-3.3h-4.15a24.73,24.73,0,0,0,.51-2.83Zm-4,2.23h4v-1.62h-3.73Zm6.39-8.38a10.63,10.63,0,0,1-.41,1.19H558v.58h-2.89a6.58,6.58,0,0,1,1,1.52l-.6.27a7.68,7.68,0,0,0-1.15-1.79h-1.2a8.6,8.6,0,0,1-1.25,1.87,3.94,3.94,0,0,0-.6-.37,7.66,7.66,0,0,0,1.84-3.42Zm-1.7,6.15h4.25v-1.6h-4.25Z" transform="translate(-407.5 -128.58)"/><path d="M573.41,467.19v.75H560.52v-.75Z" transform="translate(-407.5 -128.58)"/><path d="M468.47,475.72l-.37.57a16.85,16.85,0,0,0,6.15,5,2,2,0,0,0-.5.58,18.14,18.14,0,0,1-6-5,17.48,17.48,0,0,1-6,5,2.45,2.45,0,0,0-.51-.58,16.19,16.19,0,0,0,6.65-5.84Zm-.41,3.66v8.94h-.69v-8.94Z" transform="translate(-407.5 -128.58)"/><path d="M488,478v.67h-7.29c-.06.85-.11,1.73-.24,2.59h6.07s0,.27,0,.38c-.3,4.1-.6,5.63-1.13,6.15a1.26,1.26,0,0,1-1,.38,21.32,21.32,0,0,1-2.35-.07,1.36,1.36,0,0,0-.24-.67c1,.08,2,.1,2.4.1a1,1,0,0,0,.67-.16c.43-.4.72-1.83,1-5.44h-5.42c-.47,2.59-1.52,5-4.27,6.41a2.54,2.54,0,0,0-.51-.52c3.78-1.81,4.2-5.77,4.38-9.16h-4V478Zm-6.07-2.59a15.44,15.44,0,0,1,1,2.16l-.69.3a14.1,14.1,0,0,0-1-2.18Z" transform="translate(-407.5 -128.58)"/><path d="M492.71,475.44v3.12h2v.65h-2V480c.41.44,1.59,1.88,1.87,2.27l-.47.55a22.8,22.8,0,0,0-1.4-2v7.41h-.65v-7.53a16.9,16.9,0,0,1-2.2,4.78,2.39,2.39,0,0,0-.43-.57,16.31,16.31,0,0,0,2.51-5.77h-2.17v-.65h2.28v-3.12Zm5.27.16a12.41,12.41,0,0,1-.65,1.39h3.5l.14,0,.43.21a10.09,10.09,0,0,1-2.38,3.7,10.42,10.42,0,0,0,3.74,2.1,4.51,4.51,0,0,0-.44.58,10.82,10.82,0,0,1-3.76-2.24,13.07,13.07,0,0,1-2.76,1.88h5.61v5.1h-.65v-.65h-4.54v.71h-.65v-5a13,13,0,0,1-1.33.55,2.64,2.64,0,0,0-.41-.57,12,12,0,0,0,4.27-2.42,10.41,10.41,0,0,1-1.74-2.35,10.77,10.77,0,0,1-1.6,1.76,5,5,0,0,0-.57-.47,10.51,10.51,0,0,0,3.13-4.38ZM500.76,487v-3.19h-4.54V487Zm-4-9.06a8.82,8.82,0,0,0,1.79,2.48,8.85,8.85,0,0,0,2-2.82H497Z" transform="translate(-407.5 -128.58)"/><path d="M516.53,476.49v.68h-1.8v10c0,.61-.17.91-.65,1a15.36,15.36,0,0,1-2.81.11,5.11,5.11,0,0,0-.3-.75c1.21,0,2.32,0,2.67,0s.38-.1.38-.4v-10H504v-.68Zm-5.32,3.06v5.16h-5v1.16h-.67v-6.32Zm-5,4.49h4.31V480.2h-4.31Z" transform="translate(-407.5 -128.58)"/><path d="M518.25,478.61c.21,0,.4-.26.64-.57a13.13,13.13,0,0,0,1.6-2.62l.68.25a17.38,17.38,0,0,1-1.87,2.85l3.76-.2a16.48,16.48,0,0,0-1.25-1.81l.54-.23a12.75,12.75,0,0,1,1.94,3l-.55.3c-.1-.23-.23-.5-.38-.78a37.49,37.49,0,0,0-4.88.43A3.75,3.75,0,0,0,518.25,478.61Zm5.46,1.84v6.93c0,.44-.1.67-.43.78a7.26,7.26,0,0,1-1.84.11,3.08,3.08,0,0,0-.26-.65c.77,0,1.39,0,1.62,0s.24-.06.24-.24v-2.07h-3.56v3h-.64v-7.85Zm-4.22.61v1.5H523v-1.5Zm0,3.64H523v-1.56h-3.56Zm10.59-7.57a35.59,35.59,0,0,1-4.22,1.46v1.8c0,.44.13.54.84.54h2.66c.61,0,.71-.25.78-1.76a1.34,1.34,0,0,0,.62.28c-.09,1.67-.33,2.11-1.35,2.11h-2.74c-1.18,0-1.5-.23-1.5-1.16v-5h.68V478a33.77,33.77,0,0,0,3.73-1.42Zm.17,6.29a20.28,20.28,0,0,1-4.39,1.63v2c0,.44.14.54.88.54h2.71c.64,0,.75-.28.81-2a2,2,0,0,0,.62.27c-.08,1.86-.31,2.34-1.4,2.34h-2.75c-1.22,0-1.53-.23-1.53-1.18v-5h.67v2.44a17.66,17.66,0,0,0,3.93-1.56Z" transform="translate(-407.5 -128.58)"/><path d="M535.84,475.58c-.23.71-.52,1.53-.79,2.14h2.49v9.1h-4V488h-.65V477.72h1.57a17.74,17.74,0,0,0,.68-2.31Zm-2.34,6.17h3.39v-3.4H533.5Zm3.39,4.42v-3.79H533.5v3.79Zm3.86-10.67a22.11,22.11,0,0,1-.64,2.21h4.42v.41c-.24,6.59-.45,8.75-1,9.41a1.23,1.23,0,0,1-1,.47,18.06,18.06,0,0,1-2-.06,1.68,1.68,0,0,0-.23-.67c.92.08,1.77.08,2.08.08s.45,0,.6-.21c.47-.51.72-2.72.94-8.79h-4a11.85,11.85,0,0,1-1.39,2.65,3.72,3.72,0,0,0-.58-.38,14.13,14.13,0,0,0,2.2-5.27Zm-.75,5.34a24.77,24.77,0,0,1,2.34,3.23l-.58.4a22.78,22.78,0,0,0-2.3-3.32Z" transform="translate(-407.5 -128.58)"/><path d="M550.6,475.69a20.25,20.25,0,0,1-1.52,3.1v9.5h-.68v-8.43a15.32,15.32,0,0,1-1.7,2.11,4.16,4.16,0,0,0-.44-.62,17,17,0,0,0,3.7-5.85Zm4.69,11.37a62.67,62.67,0,0,0,1.49-7.3l.72.14c-.4,2.2-1,5.19-1.53,7.16h3.22v.67h-8.9v-.67Zm3.26-8.92v.65h-7.61v-.65Zm-6,1.76a56.91,56.91,0,0,1,1.11,6.14l-.69.21a52.24,52.24,0,0,0-1-6.21Zm2-4.49a17.66,17.66,0,0,1,.72,2.24l-.68.21a16,16,0,0,0-.68-2.27Z" transform="translate(-407.5 -128.58)"/><path d="M565.91,481.23l.24-1h-5.32v-.58h5.44l.18-1h-4.88V476h10.89v2.67h-5.3l-.21,1h6v.58h-6.08l-.25,1h4.52v6.08h2.08v.57H560.71v-.57h2v-6.08Zm-3.66-3.13h2.67v-1.54h-2.67Zm8.18,4.62v-.95h-7v.95Zm-7,1.5h7v-1h-7Zm0,1.52h7v-1h-7Zm7,1.57v-1.08h-7v1.08Zm-4.86-9.21h2.76v-1.54h-2.76Zm3.4,0h2.82v-1.54H569Z" transform="translate(-407.5 -128.58)"/><g class="cls-3"><rect x="10.96" y="325.32" width="41.81" height="41.81"/><path d="M459.92,454.25v41.1h-41.1v-41.1h41.1m.71-.71H418.11v42.52h42.52V453.54Z" transform="translate(-407.5 -128.58)"/></g><path d="M784.48,150.28a38.42,38.42,0,0,1-4.59.61v1.87h5.2v.65h-1.76v2.18h2.5v.65h-2.5v2.34h1.9v.65h-5.34v2.06h4.61v.65h-9.91v-.65h4.59v-2.06h-5.32v-.65h1.94v-2.34h-2.57v-.65h2.57v-2.18H774v-.65h5.2V151c-1.54.11-3.13.2-4.55.24a2.46,2.46,0,0,0-.17-.61,68.5,68.5,0,0,0,9.65-.92Zm-5.3,3.13H776.5v2.18h2.68Zm-2.68,2.83v2.34h2.68v-2.34Zm6.12-.65v-2.18h-2.74v2.18Zm-2.74,3h2.74v-2.34h-2.74Z" transform="translate(-407.5 -128.58)"/><path d="M793.79,152.83c.08-.4.17-.88.25-1.37h-5.29v-.62h5.37c.07-.5.13-1,.17-1.37l.75.08-.23,1.29h5.83v.62h-5.94l-.27,1.38h4.66v8.29h2v.64H788.31v-.64h2.14v-8.29Zm4.62,2.08v-1.47h-7.3v1.47Zm-7.3,2h7.3v-1.37h-7.3Zm0,2.08h7.3v-1.5h-7.3Zm7.3,2.17v-1.59h-7.3v1.59Z" transform="translate(-407.5 -128.58)"/><path d="M803.88,154.88c.24,0,.57-.38.87-.81a19.2,19.2,0,0,0,1.79-3h-2.91v-.64h3.2l.23-.13.48.3a31.37,31.37,0,0,1-2.38,3.93h2.14l.13,0,.41.13a14.48,14.48,0,0,1-1.42,4.92c1.47,1.43,3.57,1.76,6.08,1.76.44,0,3.35,0,3.94,0a2,2,0,0,0-.3.67h-3.66c-2.68,0-4.83-.35-6.39-1.83a7.47,7.47,0,0,1-2.21,2.3,2.17,2.17,0,0,0-.52-.5,6.77,6.77,0,0,0,2.25-2.31,8.41,8.41,0,0,1-1.49-2.92l.55-.24a7.49,7.49,0,0,0,1.26,2.57,12.77,12.77,0,0,0,1.15-3.86h-2.51c-.16.07-.4.2-.4.31A2.87,2.87,0,0,0,803.88,154.88Zm5.85-1.42V159h2.4V151c-1.13.21-2.31.38-3.42.51a2.31,2.31,0,0,0-.21-.57,32.19,32.19,0,0,0,6.83-1.42l.58.52a20,20,0,0,1-3.12.82v3.35h3.3v.64h-3.3V159h3.42v.65h-7.12v-6.14Z" transform="translate(-407.5 -128.58)"/><path d="M822.62,149.71a22,22,0,0,1-1.53,3.12v9.48h-.65v-8.46a17,17,0,0,1-1.73,2.14,4.14,4.14,0,0,0-.43-.62,16.72,16.72,0,0,0,3.69-5.85Zm3.91,2v-2.17h.67v2.17h4v7.36h-.67v-.67H827.2v3.94h-.67V158.4h-3.25v.75h-.65v-7.44Zm-3.25.64v2.37h3.25v-2.37Zm0,3v2.41h3.25v-2.41Zm3.91-.64h3.36v-2.37H827.2Zm0,3h3.36v-2.41H827.2Z" transform="translate(-407.5 -128.58)"/><path d="M838.64,150.7v9h-3.5v1.15h-.67V150.7Zm-.65.64h-2.85v3.47H838Zm-2.85,4.1v3.63H838v-3.63Zm9.72-5.91v2.91h1.88v.68h-1.88v8c0,.62-.21.86-.64,1a16.36,16.36,0,0,1-2.72.11,3.83,3.83,0,0,0-.25-.71c1.18,0,2.2,0,2.51,0s.41-.1.41-.4v-8h-4.82v-.68h4.82v-2.91Zm-4.27,4.86c.81,1.13,1.8,2.65,2.28,3.53l-.59.34a39.22,39.22,0,0,0-2.25-3.59Z" transform="translate(-407.5 -128.58)"/><path d="M849.15,162a2.6,2.6,0,0,0,1.76-2.32,1.09,1.09,0,0,1-.3,0,.79.79,0,0,1-.88-.86.82.82,0,0,1,.88-.86c.67,0,1,.57,1,1.45a3.26,3.26,0,0,1-2.24,3.09Z" transform="translate(-407.5 -128.58)"/><path d="M860.24,149.57a8.81,8.81,0,0,1-.52,1.19h3.9v.58h-2.52a8.46,8.46,0,0,1,.6,1.54l-.62.2a9.79,9.79,0,0,0-.67-1.74h-1a9.28,9.28,0,0,1-1.6,2,4.13,4.13,0,0,0-.58-.37,8.38,8.38,0,0,0,2.37-3.56Zm2.93,6.15v-1.6h-4.79v-.62h10.4v2.83h-4.92v1.62h5.27s0,.21,0,.33c-.23,2-.42,2.88-.79,3.2a1.1,1.1,0,0,1-.81.27c-.33,0-1,0-1.76,0a2,2,0,0,0-.2-.65,15.57,15.57,0,0,0,1.71.09c.25,0,.41,0,.51-.11s.42-.88.61-2.47h-4.52v3.78h-.69V158.7a12.78,12.78,0,0,1-5.07,3.7,2.12,2.12,0,0,0-.47-.54,12.38,12.38,0,0,0,4.9-3.3h-4.15a24.86,24.86,0,0,0,.51-2.83Zm-4,2.23h4v-1.62h-3.73Zm6.39-8.38a10.62,10.62,0,0,1-.41,1.19h4.61v.58h-2.89a6.59,6.59,0,0,1,1,1.52l-.59.27a7.7,7.7,0,0,0-1.15-1.79H864.9a8.59,8.59,0,0,1-1.25,1.87,4,4,0,0,0-.6-.37,7.66,7.66,0,0,0,1.84-3.42Zm-1.7,6.15h4.25v-1.6h-4.25Z" transform="translate(-407.5 -128.58)"/><path d="M885.22,155.38v.75H872.33v-.75Z" transform="translate(-407.5 -128.58)"/><path d="M780.28,163.91l-.37.57a16.85,16.85,0,0,0,6.15,5,2,2,0,0,0-.5.58,18.15,18.15,0,0,1-6-5,17.47,17.47,0,0,1-6,5,2.46,2.46,0,0,0-.51-.58,16.19,16.19,0,0,0,6.65-5.84Zm-.41,3.66v8.94h-.69v-8.94Z" transform="translate(-407.5 -128.58)"/><path d="M799.77,166.19v.67h-7.29c-.06.85-.11,1.73-.24,2.59h6.07s0,.27,0,.38c-.3,4.1-.6,5.63-1.13,6.15a1.26,1.26,0,0,1-1,.38,21.4,21.4,0,0,1-2.35-.07,1.37,1.37,0,0,0-.24-.67c1,.09,2,.1,2.4.1a1,1,0,0,0,.67-.16c.43-.4.72-1.83,1-5.44h-5.42c-.47,2.59-1.52,5-4.27,6.41a2.56,2.56,0,0,0-.51-.52c3.79-1.81,4.2-5.77,4.38-9.16h-4v-.67Zm-6.07-2.59a15.48,15.48,0,0,1,1,2.15l-.69.3a14.08,14.08,0,0,0-1-2.18Z" transform="translate(-407.5 -128.58)"/><path d="M804.52,163.63v3.12h2v.65h-2v.84c.41.44,1.59,1.89,1.87,2.27l-.47.55a22.83,22.83,0,0,0-1.4-2v7.41h-.65V169a16.86,16.86,0,0,1-2.2,4.78,2.38,2.38,0,0,0-.42-.57,16.32,16.32,0,0,0,2.51-5.77h-2.17v-.65h2.28v-3.12Zm5.27.16a12.41,12.41,0,0,1-.65,1.39h3.5l.14,0,.43.21a10.09,10.09,0,0,1-2.38,3.7,10.43,10.43,0,0,0,3.74,2.1,4.52,4.52,0,0,0-.44.58,10.81,10.81,0,0,1-3.76-2.24,13.08,13.08,0,0,1-2.76,1.89h5.61v5.1h-.65v-.65H808v.71h-.65v-5A13.15,13.15,0,0,1,806,172a2.67,2.67,0,0,0-.41-.57,12,12,0,0,0,4.27-2.42,10.42,10.42,0,0,1-1.74-2.35,10.79,10.79,0,0,1-1.6,1.76A4.86,4.86,0,0,0,806,168a10.51,10.51,0,0,0,3.13-4.38Zm2.78,11.41V172H808v3.19Zm-4-9.06a8.83,8.83,0,0,0,1.79,2.48,8.84,8.84,0,0,0,2-2.82h-3.53Z" transform="translate(-407.5 -128.58)"/><path d="M828.34,164.67v.68h-1.8v10c0,.61-.17.91-.65,1a15.31,15.31,0,0,1-2.81.11,5.15,5.15,0,0,0-.3-.75c1.21,0,2.33,0,2.67,0s.38-.1.38-.4v-10h-10v-.68ZM823,167.74v5.16h-5v1.16h-.67v-6.32Zm-5,4.49h4.31v-3.84H818Z" transform="translate(-407.5 -128.58)"/><path d="M830.06,166.8c.21,0,.4-.26.64-.57a13.12,13.12,0,0,0,1.6-2.62l.68.25a17.36,17.36,0,0,1-1.87,2.85l3.76-.2a16.5,16.5,0,0,0-1.25-1.81l.54-.23a12.76,12.76,0,0,1,1.94,3l-.55.3c-.1-.23-.23-.5-.38-.78a37.46,37.46,0,0,0-4.88.43A3.71,3.71,0,0,0,830.06,166.8Zm5.46,1.84v6.93c0,.44-.1.67-.42.78a7.26,7.26,0,0,1-1.84.11,3.11,3.11,0,0,0-.26-.65c.77,0,1.39,0,1.62,0s.24-.06.24-.24v-2.07h-3.56v3h-.64v-7.85Zm-4.22.61v1.5h3.56v-1.5Zm0,3.64h3.56v-1.56h-3.56Zm10.59-7.57a35.6,35.6,0,0,1-4.22,1.46v1.8c0,.44.13.54.84.54h2.66c.61,0,.71-.26.78-1.76a1.33,1.33,0,0,0,.62.28c-.09,1.67-.33,2.11-1.35,2.11h-2.74c-1.18,0-1.5-.23-1.5-1.16v-5h.68v2.58a33.89,33.89,0,0,0,3.73-1.42Zm.17,6.29a20.35,20.35,0,0,1-4.39,1.63v2c0,.44.14.54.88.54h2.71c.64,0,.75-.28.81-2a2,2,0,0,0,.62.27c-.08,1.86-.31,2.34-1.4,2.34h-2.75c-1.22,0-1.53-.23-1.53-1.18v-5h.67v2.44a17.65,17.65,0,0,0,3.93-1.56Z" transform="translate(-407.5 -128.58)"/><path d="M847.65,163.77c-.23.71-.53,1.53-.79,2.14h2.49V175h-4v1.18h-.65V165.91h1.57a17.84,17.84,0,0,0,.68-2.31Zm-2.34,6.17h3.39v-3.4h-3.39Zm3.39,4.42v-3.79h-3.39v3.79Zm3.86-10.67a22.27,22.27,0,0,1-.64,2.21h4.42v.41c-.24,6.59-.45,8.75-1,9.41a1.23,1.23,0,0,1-1,.47,18,18,0,0,1-2-.06,1.69,1.69,0,0,0-.23-.67c.92.08,1.77.08,2.08.08s.45,0,.59-.21c.47-.51.72-2.72.94-8.79h-4a11.83,11.83,0,0,1-1.39,2.65,3.79,3.79,0,0,0-.58-.38,14.12,14.12,0,0,0,2.2-5.27ZM851.8,169a24.79,24.79,0,0,1,2.34,3.23l-.58.4a22.81,22.81,0,0,0-2.3-3.32Z" transform="translate(-407.5 -128.58)"/><path d="M862.42,163.88a20.3,20.3,0,0,1-1.52,3.1v9.5h-.68V168a15.38,15.38,0,0,1-1.7,2.11,4.19,4.19,0,0,0-.44-.62,16.94,16.94,0,0,0,3.7-5.85Zm4.69,11.37a62.56,62.56,0,0,0,1.49-7.3l.72.14c-.4,2.2-1,5.19-1.53,7.16H871v.67h-8.9v-.67Zm3.26-8.92V167h-7.61v-.65Zm-6,1.76a57,57,0,0,1,1.11,6.14l-.7.21a52.15,52.15,0,0,0-1-6.21Zm2-4.49a17.82,17.82,0,0,1,.72,2.24l-.68.21a16,16,0,0,0-.68-2.27Z" transform="translate(-407.5 -128.58)"/><path d="M877.72,169.42l.24-1h-5.32v-.58h5.44l.18-1H873.4v-2.67h10.89v2.67H879l-.21,1h6v.58h-6.08l-.25,1h4.52v6.08H885v.57H872.52v-.57h2v-6.08Zm-3.66-3.13h2.67v-1.55h-2.67Zm8.18,4.62V170h-7v.95Zm-7,1.5h7v-1h-7Zm0,1.52h7v-1h-7Zm7,1.57v-1.08h-7v1.08Zm-4.86-9.21h2.76v-1.55h-2.76Zm3.4,0h2.82v-1.55h-2.82Z" transform="translate(-407.5 -128.58)"/><g class="cls-1"><rect class="cls-2" x="322.77" y="13.51" width="41.81" height="41.81"/><path d="M771.73,142.44v41.1h-41.1v-41.1h41.1m.71-.71H729.92v42.52h42.52V141.73Z" transform="translate(-407.5 -128.58)"/></g><g class="cls-4"><rect class="cls-5" x="181.04" y="183.59" width="41.81" height="41.81"/><path d="M630,312.52v41.1H588.9v-41.1H630m.71-.71H588.19v42.52h42.52V311.81Z" transform="translate(-407.5 -128.58)"/><rect class="cls-5" x="223.56" y="183.59" width="41.81" height="41.81"/><path d="M672.52,312.52v41.1h-41.1v-41.1h41.1m.71-.71H630.71v42.52h42.52V311.81Z" transform="translate(-407.5 -128.58)"/><rect class="cls-5" x="266.08" y="183.59" width="41.81" height="41.81"/><path d="M715,312.52v41.1h-41.1v-41.1H715m.71-.71H673.23v42.52h42.52V311.81Z" transform="translate(-407.5 -128.58)"/></g><g class="cls-4"><rect class="cls-5" x="96" y="98.55" width="41.81" height="41.81"/><path d="M545,227.48v41.1h-41.1v-41.1H545m.71-.71H503.15v42.52h42.52V226.77Z" transform="translate(-407.5 -128.58)"/><rect class="cls-5" x="138.52" y="98.55" width="41.81" height="41.81"/><path d="M587.48,227.48v41.1h-41.1v-41.1h41.1m.71-.71H545.67v42.52h42.52V226.77Z" transform="translate(-407.5 -128.58)"/><rect class="cls-5" x="181.04" y="98.55" width="41.81" height="41.81"/><path d="M630,227.48v41.1H588.9v-41.1H630m.71-.71H588.19v42.52h42.52V226.77Z" transform="translate(-407.5 -128.58)"/></g><g class="cls-4"><rect class="cls-5" x="11.04" y="140.63" width="41.81" height="41.81"/><path d="M460,269.56v41.1H418.9v-41.1H460m.71-.71H418.19v42.52h42.52V268.85Z" transform="translate(-407.5 -128.58)"/><rect class="cls-5" x="11.04" y="98.11" width="41.81" height="41.81"/><path d="M460,227v41.1H418.9V227H460m.71-.71H418.19v42.52h42.52V226.33Z" transform="translate(-407.5 -128.58)"/><rect class="cls-5" x="11.04" y="55.59" width="41.81" height="41.81"/><path d="M460,184.52v41.1H418.9v-41.1H460m.71-.71H418.19v42.52h42.52V183.81Z" transform="translate(-407.5 -128.58)"/></g><path d="M784.17,327.57v11.91h-.7v-1h-8v1h-.68V327.57Zm-.7,3.39v-2.71h-8V331Zm-8,3.4h8v-2.74h-8Zm0,3.43h8V335h-8Z" transform="translate(-407.5 -128.58)"/><path d="M790.4,326.62v3.13h2v.67h-2v.43c.41.47,1.66,2.11,2,2.51l-.47.55c-.26-.45-1-1.5-1.49-2.21v7.78h-.68v-7.73a14.94,14.94,0,0,1-2.27,4.37,2.67,2.67,0,0,0-.44-.61,14.49,14.49,0,0,0,2.54-5.09h-2.1v-.67h2.27v-3.13Zm4,7.14a13.6,13.6,0,0,1-2,4.31,3.79,3.79,0,0,0-.58-.38,11.27,11.27,0,0,0,1.9-4.07Zm5.66-2.55v.65h-3.63v6.65c0,.47-.11.69-.45.82a8.12,8.12,0,0,1-2,.13,3.2,3.2,0,0,0-.24-.71c.84,0,1.53,0,1.73,0s.27-.07.27-.27v-6.63h-3.16v-.65Zm-.74-3.39v.65h-6.15v-.65Zm-1,5.77a22.85,22.85,0,0,1,1.7,4.22l-.65.23a22.23,22.23,0,0,0-1.67-4.27Z" transform="translate(-407.5 -128.58)"/><path d="M813.94,329.18v.67h-7.29c-.06.85-.11,1.73-.24,2.59h6.07s0,.27,0,.38c-.3,4.1-.6,5.63-1.13,6.15a1.26,1.26,0,0,1-1,.38,21.42,21.42,0,0,1-2.35-.07,1.35,1.35,0,0,0-.24-.67c1,.09,2,.1,2.4.1a1,1,0,0,0,.67-.16c.42-.4.72-1.83,1-5.44h-5.42c-.47,2.59-1.52,5-4.27,6.41a2.55,2.55,0,0,0-.51-.52c3.78-1.81,4.2-5.77,4.38-9.16h-4v-.67Zm-6.07-2.59a15.49,15.49,0,0,1,1,2.15l-.7.3a14.16,14.16,0,0,0-1-2.18Z" transform="translate(-407.5 -128.58)"/><path d="M818.69,326.62v3.12h2v.65h-2v.84c.41.44,1.59,1.89,1.87,2.27l-.47.55a22.62,22.62,0,0,0-1.4-2v7.41H818v-7.53a16.91,16.91,0,0,1-2.2,4.78,2.38,2.38,0,0,0-.43-.57,16.32,16.32,0,0,0,2.51-5.77h-2.17v-.65H818v-3.12Zm5.27.16a12.41,12.41,0,0,1-.65,1.39h3.5l.14,0,.42.21A10.09,10.09,0,0,1,825,332a10.42,10.42,0,0,0,3.74,2.1,4.43,4.43,0,0,0-.44.58,10.81,10.81,0,0,1-3.76-2.24,13.07,13.07,0,0,1-2.76,1.89h5.61v5.1h-.65v-.65h-4.54v.71h-.65v-5a13.16,13.16,0,0,1-1.33.55,2.64,2.64,0,0,0-.41-.57,12,12,0,0,0,4.27-2.42,10.39,10.39,0,0,1-1.74-2.35,10.79,10.79,0,0,1-1.6,1.76,5,5,0,0,0-.57-.47,10.51,10.51,0,0,0,3.13-4.38Zm2.78,11.41V335h-4.54v3.19Zm-4-9.06a8.81,8.81,0,0,0,1.79,2.48,8.86,8.86,0,0,0,2-2.82H823Z" transform="translate(-407.5 -128.58)"/><path d="M834.07,326.87a20.3,20.3,0,0,1-1.52,3.1v9.5h-.68V331a15.38,15.38,0,0,1-1.7,2.11,4.19,4.19,0,0,0-.44-.62,16.94,16.94,0,0,0,3.7-5.85Zm4.69,11.37a62.56,62.56,0,0,0,1.49-7.3l.72.14c-.4,2.2-1,5.19-1.53,7.16h3.22v.67h-8.9v-.67Zm3.26-8.92V330h-7.61v-.65Zm-6,1.76a57,57,0,0,1,1.11,6.14l-.7.21a52.15,52.15,0,0,0-1-6.21Zm2-4.49a17.82,17.82,0,0,1,.72,2.24L838,329a16,16,0,0,0-.68-2.27Z" transform="translate(-407.5 -128.58)"/><path d="M849.38,332.42l.24-1H844.3v-.58h5.44l.18-1h-4.88v-2.67h10.89v2.67h-5.3l-.21,1h6v.58H850.3l-.25,1h4.52v6.08h2.08v.57H844.17v-.57h2v-6.08Zm-3.66-3.13h2.67v-1.55h-2.67Zm8.18,4.62V333h-7v.95Zm-7,1.5h7v-1h-7Zm0,1.52h7v-1h-7Zm7,1.57v-1.08h-7v1.08ZM849,329.28h2.76v-1.55H849Zm3.4,0h2.82v-1.55h-2.82Z" transform="translate(-407.5 -128.58)"/><path d="M861.79,333.68a13,13,0,0,1-3.09,4.55,6,6,0,0,0-.62-.42,11,11,0,0,0,3-4.31Zm9-2.47v.68h-5.84v6.59c0,.54-.14.77-.55.88a12.25,12.25,0,0,1-2.44.11,3.07,3.07,0,0,0-.28-.71c1.06,0,2,0,2.23,0s.34-.08.34-.31v-6.59h-5.84v-.68Zm-1.2-3.44v.67h-9.94v-.67Zm-1.67,5.78a17.88,17.88,0,0,1,2.69,4.38l-.65.28a17.77,17.77,0,0,0-2.65-4.39Z" transform="translate(-407.5 -128.58)"/><path d="M875.57,326.8a21.52,21.52,0,0,1-1,2.86v9.79h-.65V331a13.48,13.48,0,0,1-1.25,1.94,4.16,4.16,0,0,0-.41-.65,15.4,15.4,0,0,0,2.69-5.67Zm1.6,6.89a13.71,13.71,0,0,1,1.63,1.25,16.79,16.79,0,0,0,.92-3.66h-2.2a12.9,12.9,0,0,1-1.6,3.35,4.61,4.61,0,0,0-.55-.4,15.85,15.85,0,0,0,2.31-6.08h-1.8v-.67h5v.67h-2.49c-.18.86-.38,1.69-.62,2.48h2.17l.11,0,.42.11c-.52,4.55-2.13,7.43-4.27,8.83a2,2,0,0,0-.45-.54,7.56,7.56,0,0,0,2.79-3.4,11.78,11.78,0,0,0-1.73-1.45Zm5.09-5.34v7.8h-.64v-7.8Zm2.38-1.7v11.77c0,.52-.16.75-.5.85a7.19,7.19,0,0,1-2,.14,4.29,4.29,0,0,0-.25-.69c.85,0,1.57,0,1.8,0s.3-.09.3-.31V326.65Z" transform="translate(-407.5 -128.58)"/><g class="cls-4"><rect class="cls-5" x="322.77" y="183.59" width="41.81" height="41.81"/><path d="M771.73,312.52v41.1h-41.1v-41.1h41.1m.71-.71H729.92v42.52h42.52V311.81Z" transform="translate(-407.5 -128.58)"/></g></svg>